ply
format ascii 1.0
element vertex 162
property float x
property float y
property float z
element face 320
property list int int vertex_index
end_header
-8 0 0
-7.70377 0 -2.15684
-7.70377 0 2.15684
-7.60721 -2.17858 -1.17649
-7.60721 -2.17858 1.17649
-7.60721 2.17858 -1.17649
-7.60721 2.17858 1.17649
-6.80521 0 -4.20585
-6.80521 0 4.20585
-6.89898 -2.10697 -3.45901
-6.89898 -2.10697 3.45901
-6.89898 2.10697 -3.45901
-6.89898 2.10697 3.45901
-6.47214 -4 -2.47214
-6.8801 -4.08219 0
-6.47214 -4 2.47214
-6.47214 4 -2.47214
-6.8801 4.08219 0
-6.47214 4 2.47214
-5.5968 -1.30218 -5.56598
-5.5968 -1.30218 5.56598
-5.5968 1.30218 -5.56598
-5.5968 1.30218 5.56598
-5.56598 -5.5968 -1.30218
-5.56598 -5.5968 1.30218
-5.56598 5.5968 -1.30218
-5.56598 5.5968 1.30218
-5.42863 -3.52502 -4.70151
-5.42863 -3.52502 4.70151
-5.42863 3.52502 -4.70151
-5.42863 3.52502 4.70151
-4.70151 -5.42863 -3.52502
-4.70151 -5.42863 3.52502
-4.70151 5.42863 -3.52502
-4.70151 5.42863 3.52502
-4.20585 -6.80521 0
-4.20585 6.80521 0
-4 -2.47214 -6.47214
-4 -2.47214 6.47214
-4.08219 0 -6.8801
-4.08219 0 6.8801
-4 2.47214 -6.47214
-4 2.47214 6.47214
-3.45901 -6.89898 -2.10697
-3.45901 -6.89898 2.10697
-3.45901 6.89898 -2.10697
-3.45901 6.89898 2.10697
-3.52502 -4.70151 -5.42863
-3.52502 -4.70151 5.42863
-3.52502 4.70151 -5.42863
-3.52502 4.70151 5.42863
-2.47214 -6.47214 -4
-2.47214 -6.47214 4
-2.47214 6.47214 -4
-2.47214 6.47214 4
-2.15684 -7.70377 0
-2.15684 7.70377 0
-2.10697 -3.45901 -6.89898
-2.10697 -3.45901 6.89898
-2.17858 -1.17649 -7.60721
-2.17858 -1.17649 7.60721
-2.17858 1.17649 -7.60721
-2.17858 1.17649 7.60721
-2.10697 3.45901 -6.89898
-2.10697 3.45901 6.89898
-1.17649 -7.60721 -2.17858
-1.17649 -7.60721 2.17858
-1.30218 -5.56598 -5.5968
-1.30218 -5.56598 5.5968
-1.30218 5.56598 -5.5968
-1.30218 5.56598 5.5968
-1.17649 7.60721 -2.17858
-1.17649 7.60721 2.17858
0 -8 0
0 -6.8801 -4.08219
0 -6.8801 4.08219
0 -4.20585 -6.80521
0 -4.20585 6.80521
0 -2.15684 -7.70377
0 -2.15684 7.70377
0 0 -8
0 0 8
0 2.15684 -7.70377
0 2.15684 7.70377
0 4.20585 -6.80521
0 4.20585 6.80521
0 6.8801 -4.08219
0 6.8801 4.08219
0 8 0
1.17649 -7.60721 -2.17858
1.17649 -7.60721 2.17858
1.30218 -5.56598 -5.5968
1.30218 -5.56598 5.5968
1.30218 5.56598 -5.5968
1.30218 5.56598 5.5968
1.17649 7.60721 -2.17858
1.17649 7.60721 2.17858
2.10697 -3.45901 -6.89898
2.10697 -3.45901 6.89898
2.17858 -1.17649 -7.60721
2.17858 -1.17649 7.60721
2.17858 1.17649 -7.60721
2.17858 1.17649 7.60721
2.10697 3.45901 -6.89898
2.10697 3.45901 6.89898
2.15684 -7.70377 0
2.15684 7.70377 0
2.47214 -6.47214 -4
2.47214 -6.47214 4
2.47214 6.47214 -4
2.47214 6.47214 4
3.52502 -4.70151 -5.42863
3.52502 -4.70151 5.42863
3.52502 4.70151 -5.42863
3.52502 4.70151 5.42863
3.45901 -6.89898 -2.10697
3.45901 -6.89898 2.10697
3.45901 6.89898 -2.10697
3.45901 6.89898 2.10697
4 -2.47214 -6.47214
4 -2.47214 6.47214
4.08219 0 -6.8801
4.08219 0 6.8801
4 2.47214 -6.47214
4 2.47214 6.47214
4.20585 -6.80521 0
4.20585 6.80521 0
4.70151 -5.42863 -3.52502
4.70151 -5.42863 3.52502
4.70151 5.42863 -3.52502
4.70151 5.42863 3.52502
5.42863 -3.52502 -4.70151
5.42863 -3.52502 4.70151
5.42863 3.52502 -4.70151
5.42863 3.52502 4.70151
5.56598 -5.5968 -1.30218
5.56598 -5.5968 1.30218
5.56598 5.5968 -1.30218
5.56598 5.5968 1.30218
5.5968 -1.30218 -5.56598
5.5968 -1.30218 5.56598
5.5968 1.30218 -5.56598
5.5968 1.30218 5.56598
6.47214 -4 -2.47214
6.8801 -4.08219 0
6.47214 -4 2.47214
6.47214 4 -2.47214
6.8801 4.08219 0
6.47214 4 2.47214
6.89898 -2.10697 -3.45901
6.89898 -2.10697 3.45901
6.89898 2.10697 -3.45901
6.89898 2.10697 3.45901
6.80521 0 -4.20585
6.80521 0 4.20585
7.60721 -2.17858 -1.17649
7.60721 -2.17858 1.17649
7.60721 2.17858 -1.17649
7.60721 2.17858 1.17649
7.70377 0 -2.15684
7.70377 0 2.15684
8 0 0
3 36 26 46
3 26 18 34
3 46 34 54
3 26 34 46
3 18 12 30
3 12 8 22
3 30 22 42
3 12 22 30
3 54 50 70
3 50 42 64
3 70 64 85
3 50 64 70
3 18 30 34
3 30 42 50
3 34 50 54
3 30 50 34
3 36 46 56
3 46 54 72
3 56 72 88
3 46 72 56
3 54 70 87
3 70 85 94
3 87 94 110
3 70 94 87
3 88 96 106
3 96 110 118
3 106 118 126
3 96 118 106
3 54 87 72
3 87 110 96
3 72 96 88
3 87 96 72
3 36 56 45
3 56 88 71
3 45 71 53
3 56 71 45
3 88 106 95
3 106 126 117
3 95 117 109
3 106 117 95
3 53 86 69
3 86 109 93
3 69 93 84
3 86 93 69
3 88 95 71
3 95 109 86
3 71 86 53
3 95 86 71
3 36 45 25
3 45 53 33
3 25 33 16
3 45 33 25
3 53 69 49
3 69 84 63
3 49 63 41
3 69 63 49
3 16 29 11
3 29 41 21
3 11 21 7
3 29 21 11
3 53 49 33
3 49 41 29
3 33 29 16
3 49 29 33
3 36 25 26
3 25 16 17
3 26 17 18
3 25 17 26
3 16 11 5
3 11 7 1
3 5 1 0
3 11 1 5
3 18 6 12
3 6 0 2
3 12 2 8
3 6 2 12
3 16 5 17
3 5 0 6
3 17 6 18
3 5 6 17
3 126 118 138
3 118 110 130
3 138 130 148
3 118 130 138
3 110 94 114
3 94 85 104
3 114 104 124
3 94 104 114
3 148 134 152
3 134 124 142
3 152 142 154
3 134 142 152
3 110 114 130
3 114 124 134
3 130 134 148
3 114 134 130
3 85 64 83
3 64 42 62
3 83 62 81
3 64 62 83
3 42 22 40
3 22 8 20
3 40 20 38
3 22 20 40
3 81 60 79
3 60 38 58
3 79 58 77
3 60 58 79
3 42 40 62
3 40 38 60
3 62 60 81
3 40 60 62
3 8 2 10
3 2 0 4
3 10 4 15
3 2 4 10
3 0 1 3
3 1 7 9
3 3 9 13
3 1 9 3
3 15 14 24
3 14 13 23
3 24 23 35
3 14 23 24
3 0 3 4
3 3 13 14
3 4 14 15
3 3 14 4
3 7 21 19
3 21 41 39
3 19 39 37
3 21 39 19
3 41 63 61
3 63 84 82
3 61 82 80
3 63 82 61
3 37 59 57
3 59 80 78
3 57 78 76
3 59 78 57
3 41 61 39
3 61 80 59
3 39 59 37
3 61 59 39
3 84 93 103
3 93 109 113
3 103 113 123
3 93 113 103
3 109 117 129
3 117 126 137
3 129 137 146
3 117 137 129
3 123 133 141
3 133 146 151
3 141 151 153
3 133 151 141
3 109 129 113
3 129 146 133
3 113 133 123
3 129 133 113
3 125 136 116
3 136 145 128
3 116 128 108
3 136 128 116
3 145 150 132
3 150 154 140
3 132 140 120
3 150 140 132
3 108 112 92
3 112 120 98
3 92 98 77
3 112 98 92
3 145 132 128
3 132 120 112
3 128 112 108
3 132 112 128
3 125 116 105
3 116 108 90
3 105 90 73
3 116 90 105
3 108 92 75
3 92 77 68
3 75 68 52
3 92 68 75
3 73 66 55
3 66 52 44
3 55 44 35
3 66 44 55
3 108 75 90
3 75 52 66
3 90 66 73
3 75 66 90
3 125 105 115
3 105 73 89
3 115 89 107
3 105 89 115
3 73 55 65
3 55 35 43
3 65 43 51
3 55 43 65
3 107 74 91
3 74 51 67
3 91 67 76
3 74 67 91
3 73 65 89
3 65 51 74
3 89 74 107
3 65 74 89
3 125 115 135
3 115 107 127
3 135 127 143
3 115 127 135
3 107 91 111
3 91 76 97
3 111 97 119
3 91 97 111
3 143 131 149
3 131 119 139
3 149 139 153
3 131 139 149
3 107 111 127
3 111 119 131
3 127 131 143
3 111 131 127
3 125 135 136
3 135 143 144
3 136 144 145
3 135 144 136
3 143 149 155
3 149 153 159
3 155 159 161
3 149 159 155
3 145 156 150
3 156 161 160
3 150 160 154
3 156 160 150
3 143 155 144
3 155 161 156
3 144 156 145
3 155 156 144
3 77 98 79
3 98 120 100
3 79 100 81
3 98 100 79
3 120 140 122
3 140 154 142
3 122 142 124
3 140 142 122
3 81 102 83
3 102 124 104
3 83 104 85
3 102 104 83
3 120 122 100
3 122 124 102
3 100 102 81
3 122 102 100
3 35 44 24
3 44 52 32
3 24 32 15
3 44 32 24
3 52 68 48
3 68 77 58
3 48 58 38
3 68 58 48
3 15 28 10
3 28 38 20
3 10 20 8
3 28 20 10
3 52 48 32
3 48 38 28
3 32 28 15
3 48 28 32
3 76 67 57
3 67 51 47
3 57 47 37
3 67 47 57
3 51 43 31
3 43 35 23
3 31 23 13
3 43 23 31
3 37 27 19
3 27 13 9
3 19 9 7
3 27 9 19
3 51 31 47
3 31 13 27
3 47 27 37
3 31 27 47
3 153 139 141
3 139 119 121
3 141 121 123
3 139 121 141
3 119 97 99
3 97 76 78
3 99 78 80
3 97 78 99
3 123 101 103
3 101 80 82
3 103 82 84
3 101 82 103
3 119 99 121
3 99 80 101
3 121 101 123
3 99 101 121
3 154 160 152
3 160 161 158
3 152 158 148
3 160 158 152
3 161 159 157
3 159 153 151
3 157 151 146
3 159 151 157
3 148 147 138
3 147 146 137
3 138 137 126
3 147 137 138
3 161 157 158
3 157 146 147
3 158 147 148
3 157 147 158
