ply
format ascii 1.0
element vertex 498
property float32 x
property float32 y
property float32 z
property float32 u
property float32 v
property float32 w
element face 992
property list int32 int32 vertex_index
end_header
9.31164 10.1252 9.17837 0.00127211 -0.000778382 0.000154354 
8.8986 10.2003 9.32223 0.00106158 -0.00105964 -0.000156283 
8.4555 10.2452 9.40131 0.000865615 -0.000839807 -0.00010335 
8.01222 10.2617 9.41008 0.000857246 -0.00103866 -0.0002246 
7.58702 10.2488 9.36153 0.000898718 -0.0010057 -1.0949e-05 
7.22245 10.2442 9.22882 0.00063014 -0.000705653 -0.000292702 
7.4068 10.5057 8.9414 0.000765172 -0.000755417 -0.000101846 
8.68669 9.91464 9.64806 0.00100275 -0.000765531 0.000240084 
8.21616 9.94652 9.69441 0.000962236 -0.000913916 -0.000170149 
7.73364 9.94902 9.67376 0.000871918 -0.00087049 -0.000202706 
7.23992 9.93113 9.57664 0.000955629 -0.000848649 -0.000286022 
8.00943 10.7278 8.68671 0.000913555 -0.000783155 0.000163365 
8.23333 10.5243 9.07727 0.00101009 -0.00104951 -0.000203096 
8.43554 10.7098 8.69684 0.00101764 -0.00108372 -0.000101948 
8.6661 10.4863 9.04662 0.000901938 -0.00102752 -0.000303423 
8.85229 10.6431 8.64354 0.000948228 -0.001173 1.0883e-06 
9.09233 10.4192 8.92645 0.00112007 -0.00105637 -8.90525e-05 
8.2237 10.8435 8.29225 0.00101525 -0.0010328 -0.000162792 
9.25889 10.5454 8.46382 0.000912418 -0.00113963 7.69175e-05 
7.97784 9.61401 9.92268 0.000771375 -0.000739168 5.712e-05 
9.00459 10.7016 8.21824 0.000917592 -0.0012407 -0.000101705 
8.62384 10.8017 8.26776 0.000923687 -0.00117297 -4.33052e-05 
8.45508 10.854 7.85083 0.000896019 -0.00127781 -8.22292e-05 
7.80735 10.523 9.04412 0.000689074 -0.000989383 -0.000267818 
7.77752 7.20033 5.73093 0.000750945 -0.000772964 -0.00227003 
8.03754 5.76399 6.45985 0.000382462 -0.000864698 -0.00151341 
8.47295 5.92102 6.38125 0.000519262 -0.000890491 -0.00135734 
7.65437 5.98526 6.30375 0.000441162 -0.000904777 -0.0014726 
8.08199 6.12444 6.18072 0.000438751 -0.000639211 -0.00167156 
8.53381 6.28264 6.13722 0.000530732 -0.000683919 -0.00173052 
8.96155 6.47511 6.15405 0.000230559 -0.000531312 -0.00145703 
8.83127 5.76167 6.66072 0.000469102 -0.000830368 -0.00162849 
8.91899 6.08429 6.40106 0.000220993 -0.000857123 -0.00124082 
8.12768 6.50848 5.96385 0.000485673 -0.000588008 -0.00172112 
8.57732 6.68425 5.93558 0.000406886 -0.000645472 -0.00174951 
7.83573 7.65568 5.64634 0.0006362 -0.000424216 -0.00214073 
9.44256 7.58664 5.96076 0.000847613 -0.000488446 -0.00135454 
7.71884 6.76982 5.87104 0.000755254 -0.000663275 -0.00199082 
8.1751 6.91969 5.79661 0.000719097 -0.000788419 -0.0018211 
8.62848 7.10725 5.79142 0.000647746 -0.000644699 -0.00183997 
9.37953 6.69263 6.23849 0.000259642 -0.000412266 -0.00127188 
9.4262 7.11819 6.07694 0.00076346 -0.000530701 -0.00138755 
9.01634 6.89113 5.97582 0.000410721 -0.000477589 -0.00168456 
9.06049 7.33205 5.85123 0.000916454 -0.000525318 -0.00146917 
8.67694 7.54554 5.7033 0.00076842 -0.000662793 -0.00204121 
8.22637 7.34667 5.6836 0.000535862 -0.000714106 -0.00205603 
10.0091 8.99558 9.48398 0.00135797 -0.00083124 9.56078e-05 
9.40923 8.69269 9.96824 0.000952869 -0.000861711 7.77456e-05 
9.82031 8.63083 9.74576 0.00121599 -0.000726212 5.24692e-05 
10.3581 8.15847 9.34995 0.00105312 -0.000517169 -0.000316734 
9.8068 7.83812 9.81461 0.000730064 -0.000869141 -0.000130262 
10.011 8.21135 9.67005 0.00093212 -0.000807967 -0.000219215 
10.1992 8.57939 9.4537 0.0015049 -0.000609359 -4.97662e-05 
9.13606 9.85506 9.53543 0.000837476 -0.000653641 0.000202898 
9.60262 8.23808 9.94041 0.00076587 -0.000862196 -0.000259393 
9.18963 8.3096 10.1318 0.000745391 -0.000907646 0.000195967 
8.49072 8.84719 10.2164 0.000682907 -0.000748799 0.000530846 
9.79175 9.38971 9.45634 0.00117829 -0.000675089 0.000279741 
9.6129 9.05763 9.74402 0.0011153 -0.000830698 0.000382828 
9.38014 9.46956 9.67586 0.000892818 -0.000664077 0.000272706 
9.18241 9.1315 9.93006 0.000885293 -0.000812475 0.000161556 
8.71947 9.19924 10.0494 0.000874368 -0.000715888 0.000182164 
8.2334 9.24395 10.1035 0.00085893 -0.000687768 -3.17865e-05 
10.5201 8.52115 9.09801 0.000960232 -0.000891079 -0.000259574 
8.97 8.77491 10.1232 0.000826791 -0.00086388 0.000395075 
10.1669 7.7736 9.51999 0.00067991 -0.000561727 -0.000429423 
8.46422 9.59168 9.90567 0.000901737 -0.000686692 0.000130416 
8.9354 9.54106 9.82378 0.00102806 -0.000756815 -1.65367e-05 
8.05484 10.8708 7.87189 0.000997395 -0.00116032 0.000142415 
7.80132 10.8273 8.24694 0.0010173 -0.00115684 4.96051e-05 
6.63611 10.4369 7.91856 0.00120821 -0.00102025 -0.000286217 
6.86711 10.4879 7.48177 0.00132451 -0.0012317 -0.000251433 
7.98512 10.6757 7.09558 0.000837497 -0.0012926 0.00012238 
8.05644 10.4529 6.72725 0.0011711 -0.000693899 3.77772e-05 
7.61396 10.5251 6.92684 0.00103168 -0.00117165 -9.59624e-06 
7.30916 10.2744 6.7138 0.00125057 -0.000838002 -0.000467627 
6.99314 10.612 7.99752 0.00117846 -0.00147715 -0.000110021 
6.95766 10.2863 6.95363 0.0015487 -0.00112842 -0.000288213 
6.64686 10.2311 7.1718 0.00145464 -0.000805688 -0.000411965 
8.00827 10.121 6.37426 0.0010438 -0.000690556 -0.000163836 
7.50838 9.96141 6.32519 0.00120528 -0.00029767 -0.000717029 
7.69194 10.2735 6.57662 0.00130561 -0.000526652 -0.000170761 
7.21608 10.519 7.16699 0.00116094 -0.00136114 -0.000145667 
7.8926 10.8033 7.49651 0.000905814 -0.00123998 0.000265811 
7.6148 10.8124 7.8075 0.00105599 -0.00122021 -9.38437e-05 
7.37677 10.746 8.1431 0.00113669 -0.00114438 1.55846e-05 
7.23359 10.6783 7.644 0.00106571 -0.00146586 -0.000111378 
7.59058 10.6977 8.60417 0.000909379 -0.000890493 1.84805e-05 
7.05577 9.98771 6.53351 0.00119615 -0.000514236 -0.00103465 
7.55449 10.7005 7.33381 0.00108076 -0.00137778 7.35872e-05 
8.27399 10.7984 7.41589 0.000940415 -0.0012552 9.62186e-05 
7.17732 10.6135 8.49436 0.00086483 -0.00117568 -6.96791e-05 
10.0359 9.57583 6.88098 0.000648166 -0.00108298 -0.000341318 
9.66143 9.68549 6.61305 0.000760845 -0.00089273 -0.000277308 
9.29688 10.6045 7.92056 0.000774149 -0.00137836 -6.4612e-05 
9.90824 10.1047 7.51849 0.000730563 -0.00127345 0.000112197 
8.86463 10.7701 7.83297 0.000797632 -0.00135375 -6.71494e-05 
9.24209 9.77694 6.39713 0.000836411 -0.000612604 -0.000238593 
8.6467 10.7546 7.4248 0.000950007 -0.00129182 0.000133562 
9.57373 10.4166 8.22158 0.000860445 -0.00113964 0.000210375 
9.51039 9.35219 6.2807 0.000860738 -0.000487133 -0.000425753 
9.65022 10.3662 7.74416 0.000993045 -0.00119022 -5.48411e-07 
8.41827 10.2878 6.55506 0.000830138 -0.000978505 0.000122606 
8.79945 10.03 6.40596 0.000629282 -0.000680381 -0.000220594 
9.12368 10.1363 6.65756 0.000586232 -0.000651793 -8.22124e-05 
9.48282 10.0405 6.80141 0.000828455 -0.000985457 -0.00010179 
9.83827 9.91994 7.0387 0.000816806 -0.00101741 -0.000114064 
10.1411 9.79303 7.33813 0.000878228 -0.0012696 -4.7801e-05 
9.38587 10.4732 7.46675 0.000628751 -0.00157784 0.000156677 
9.06198 10.6397 7.47285 0.00084793 -0.00140696 0.000183582 
8.84255 10.5717 7.10731 0.000721625 -0.00118218 9.98067e-05 
9.60957 10.2326 7.22789 0.000667588 -0.00135893 -2.1351e-05 
9.21813 10.383 7.03669 0.000600579 -0.00110134 0.000145515 
8.42332 10.6043 6.97472 0.000840694 -0.00106751 0.00020883 
8.78795 10.3681 6.75307 0.000824036 -0.000854324 2.94596e-05 
6.5044 8.25618 10.003 0.00114595 -0.000699494 -0.000348084 
6.8302 9.12336 9.93077 0.000886166 -0.000903169 -0.000100828 
7.06686 8.7671 10.1386 0.000653589 -0.00061477 5.19376e-05 
7.51501 8.84423 10.2193 0.000738577 -0.000972236 0.000156714 
6.19892 7.6199 9.81266 0.000990228 -0.000399764 -0.00105468 
6.23997 8.54454 9.80493 0.00108465 -0.000587445 -0.00039359 
7.29268 8.39242 10.2774 0.000826438 -0.000816568 -0.000140679 
7.74788 8.47533 10.3336 0.000817232 -0.000932825 0.000202429 
7.06222 7.91374 10.2486 0.000988436 -0.000743236 -0.000264128 
7.51602 8.02294 10.3523 0.000799405 -0.000798911 0.000273467 
5.89385 8.35869 9.56776 0.00104787 -0.000566215 -0.000874069 
7.35948 7.55721 10.3044 0.000834657 -0.000725349 -0.000210494 
7.03488 9.54045 9.79176 0.00097264 -0.000813552 -0.000237277 
6.00325 8.82022 9.54422 0.00084649 -0.00066635 -0.000465102 
7.99426 8.87397 10.247 0.000910297 -0.000590203 0.000429425 
7.49123 9.60758 9.87421 0.00108386 -0.000838034 -0.000217516 
7.74305 9.25048 10.096 0.00099487 -0.000518246 1.62718e-05 
6.39691 8.98864 9.76809 0.000816902 -0.00083438 -0.000192531 
6.87192 8.29318 10.1652 0.00103115 -0.000825865 -0.00026602 
6.60129 7.81641 10.0673 0.000981411 -0.000358838 -0.000634026 
6.64956 8.68952 10.0004 0.00103773 -0.000925513 -0.000465468 
6.92513 7.45497 10.1646 0.000948042 -0.000553539 -0.00068108 
6.1858 8.05735 9.82778 0.00114384 -0.000545046 -0.000963972 
7.27562 9.20686 10.0379 0.000742117 -0.000759108 -0.000184144 
10.8152 8.46596 7.38941 0.000719381 -0.000834826 -0.000304203 
9.43297 8.08894 5.91682 0.00104018 -0.000465697 -0.00119393 
10.5889 7.92981 6.88455 0.000181358 -0.000552877 -0.000488839 
10.0656 8.10344 6.31028 0.000628164 -0.000617018 -0.000747248 
10.3718 8.3078 6.60585 0.000700171 -0.000700577 -0.000697794 
10.0639 8.9415 6.48279 0.000915496 -0.000906823 -0.000228971 
10.8735 8.61897 7.84117 0.000880931 -0.00108642 -0.000236012 
10.3909 8.74724 6.72733 0.000690381 -0.000829004 -0.000238791 
10.0695 8.5592 6.36098 0.00056959 -0.000653483 -0.00049907 
10.6348 8.71623 7.0964 0.000551882 -0.000867991 -0.000297888 
9.77557 7.85543 6.1154 0.000760555 -0.000494338 -0.00106763 
10.2399 9.19916 6.79967 0.000969339 -0.00082355 -0.00032746 
9.69998 8.88954 6.18935 0.000730714 -0.000538823 -0.000705154 
10.5129 9.08053 7.11064 0.00078663 -0.00104319 -0.000287244 
9.77806 7.37128 6.20908 0.000657806 -0.00030663 -0.000969212 
9.87166 9.29913 6.50325 0.000711287 -0.000914174 -0.000523566 
10.4276 7.48708 6.77991 0.000140621 -0.000506564 -0.000630214 
10.3318 7.87855 6.57546 0.000498254 -0.00067986 -0.000501325 
10.0947 7.61106 6.39231 0.000400159 -0.000525473 -0.000769509 
9.74489 8.37765 6.10367 0.000876589 -0.000707135 -0.000996096 
10.6294 8.35148 6.95197 0.000662944 -0.000736126 -0.000287708 
10.0948 7.18613 6.53822 0.000300773 -0.000303703 -0.000741533 
10.7428 8.88103 7.49184 0.000861289 -0.00116915 -0.000153291 
10.7978 8.05667 7.27089 0.000524046 -0.000773792 -0.000274737 
5.35309 7.29019 7.52093 0.00150237 -0.000115159 -0.000805264 
5.22129 7.58543 7.9156 0.00116142 -0.000303797 -0.000819881 
5.3008 7.204 7.94302 0.00133274 -2.39078e-05 -0.00067742 
5.51596 6.61914 8.17457 0.00135426 6.92314e-05 -0.00068249 
5.70246 6.41984 8.54907 0.00126885 3.04095e-05 -0.00091297 
5.49601 7.47512 7.09145 0.00172521 -0.000173906 -0.00075991 
5.38121 6.96077 8.26 0.0017691 -0.000167802 -0.00074134 
5.27096 7.37036 8.3502 0.00111282 -0.000460236 -0.000682261 
5.21959 7.75011 8.36289 0.00119167 -0.000500964 -0.00100704 
5.86045 7.03578 9.35833 0.00140195 -0.000212539 -0.00130181 
5.43026 6.89166 7.71828 0.00154664 -0.000158698 -0.000829723 
5.54736 7.06337 7.207 0.00121687 -0.000204285 -0.000764443 
6.16472 7.16861 9.68723 0.00119211 -0.000307027 -0.00103961 
5.55714 7.75661 9.19849 0.00130717 -0.000629006 -0.000918965 
5.85129 7.47043 9.49483 0.00118945 -0.00034579 -0.000966262 
5.33446 7.99296 8.81968 0.00107099 -0.000587474 -0.00105536 
5.85712 7.89422 9.5613 0.00133923 -0.000380126 -0.00105986 
5.57972 7.35113 9.12735 0.00109855 -0.000570307 -0.000761174 
5.35461 7.57967 8.7863 0.00119305 -0.00052456 -0.000781768 
5.62816 6.96839 9.00209 0.00144332 -0.000304462 -0.00100513 
5.60002 8.16049 9.27004 0.00126463 -0.000596827 -0.000924513 
5.54826 6.75625 8.64353 0.00149022 -0.00016942 -0.000883226 
5.82889 6.62756 9.06206 0.0013903 -0.000178257 -0.00102033 
5.41155 7.16714 8.69703 0.00136572 -0.000422267 -0.000820021 
9.05364 8.30182 5.7756 0.000785926 -0.000469833 -0.00174752 
9.0868 7.80379 5.78415 0.000831726 -0.000609878 -0.00173202 
7.45804 8.00675 5.68679 0.000981498 -0.000402361 -0.00185523 
7.38022 8.78298 5.79316 0.00104492 -0.000311431 -0.00148463 
7.61883 8.45688 5.68526 0.000817394 -0.000342141 -0.00190256 
7.90748 8.89116 5.734 0.00124052 -0.000170236 -0.00141884 
8.93733 8.77493 5.8178 0.00110785 -0.000554613 -0.00110843 
8.63006 8.46107 5.68691 0.000890555 -0.000240048 -0.00166094 
8.45466 8.84063 5.73625 0.00105224 -2.76187e-05 -0.00147802 
9.37923 8.59071 5.94158 0.000919194 -0.000440855 -0.00115933 
8.11049 8.53254 5.65445 0.000921708 -0.000308115 -0.00176714 
8.71227 7.99699 5.67333 0.000976007 -0.000376754 -0.00198343 
8.32487 8.18012 5.62821 0.000879483 -0.000472794 -0.00200302 
7.89876 8.09859 5.62421 0.000890553 -0.000384355 -0.00195106 
8.2781 7.77194 5.62764 0.000677049 -0.000641481 -0.00236553 
8.39199 9.93365 6.23704 0.000911784 -0.000542692 -0.000287068 
9.11554 9.42193 6.12282 0.000928963 -0.000433344 -0.000351893 
7.59664 9.15851 5.86255 0.00116495 -0.000366875 -0.00119154 
7.94665 9.38348 5.90901 0.00107853 -0.000235428 -0.0011913 
8.2922 9.17527 5.82912 0.00130765 -0.000278002 -0.00132854 
8.76418 9.21399 5.91062 0.00101655 -0.00026323 -0.00114976 
9.26056 9.03011 6.00987 0.000969575 -0.000358476 -0.000929451 
8.78959 9.6733 6.14608 0.000949598 -0.000458749 -0.000640752 
8.38283 9.55501 6.00264 0.000956163 -0.000279293 -0.000904335 
7.94801 9.77891 6.12285 0.00104096 -0.000319637 -0.000722289 
9.05474 5.35112 8.43151 0.000335424 -0.000679721 -0.000878861 
8.72055 5.1864 8.22584 0.000318837 -0.000618478 -0.000954522 
9.42614 5.54854 7.76867 0.000234556 -0.000338945 -0.00092885 
8.6658 5.27744 8.68209 0.000288064 -0.00068941 -0.000895102 
8.3246 5.32933 8.96055 0.000325716 -0.000779841 -0.00058297 
8.97752 5.46177 8.83771 0.00021417 -0.000597495 -0.000766908 
8.68721 5.50593 9.1233 0.000226174 -0.00103764 -0.000847588 
9.10536 5.70998 9.14811 0.000118551 -0.000587274 -0.000752214 
9.32595 5.60001 8.72443 -0.000155883 -0.00025451 -0.00101277 
9.4828 5.89618 9.03523 2.63769e-05 -0.000218794 -0.00092094 
9.81897 6.11791 8.87045 -0.000218195 -0.000264722 -0.000923837 
9.10604 5.40487 7.51427 0.000254198 -0.000248503 -0.00086855 
9.64156 5.78528 8.57846 -0.0002029 -0.000104767 -0.00101465 
9.40417 5.52407 8.25914 0.00023605 -0.000521123 -0.000689006 
7.96548 5.45174 9.19634 0.000527464 -0.00138929 -0.00047816 
8.35294 5.6112 9.36994 0.000258242 -0.000979602 -0.000641741 
8.77712 5.80895 9.45126 0.00031819 -0.000659816 -0.000815016 
9.20035 6.02563 9.42568 -2.01337e-05 -0.000478007 -0.000702775 
9.09969 5.32943 7.98083 0.000396015 -0.000614184 -0.00092814 
8.3322 5.14841 8.48657 0.00034688 -0.000875156 -0.0007515 
8.41789 5.95345 9.68555 5.23532e-05 -0.00092767 -0.000748595 
8.85732 6.16719 9.7156 5.86168e-05 -0.000560559 -0.000490994 
9.2813 6.40126 9.65816 -2.74094e-05 -0.000467892 -0.000751155 
9.58016 6.24 9.30693 -9.92371e-05 -0.000247753 -0.000581251 
6.3295 7.73363 6.17023 0.00112867 -0.000231683 -0.00122019 
7.05227 7.84071 5.80685 0.000981545 -0.000354256 -0.00163763 
6.03638 7.48684 6.43162 0.00134383 -9.21707e-05 -0.000947021 
6.47123 6.79929 6.3232 0.00104625 -0.000360479 -0.00124811 
6.40975 7.24416 6.20911 0.00134208 -0.000226316 -0.000948829 
7.67017 6.3735 6.05773 0.000635277 -0.000796849 -0.00164813 
6.88432 6.12048 6.46719 0.000586097 -0.000662155 -0.001183 
6.83693 7.00176 6.0442 0.00102181 -0.000593644 -0.0015669 
7.33208 7.05701 5.85229 0.000736278 -0.000910673 -0.00217498 
6.57463 5.97435 6.80399 0.000695204 -0.000550317 -0.000967426 
5.76225 7.26073 6.7787 0.00132679 -6.03089e-05 -0.00092304 
6.09453 7.03734 6.51535 0.00122289 -0.000156482 -0.000992156 
7.25004 6.66385 6.0142 0.000823227 -0.000791653 -0.0015406 
7.25225 6.2494 6.22429 0.000835276 -0.000834791 -0.00135276 
6.85452 6.54189 6.22424 0.000999662 -0.000525362 -0.0012364 
6.51471 6.36876 6.52478 0.000906458 -0.000537164 -0.00107025 
6.15918 6.61399 6.66469 0.00101639 -0.000319556 -0.000869711 
7.27326 5.86235 6.50121 0.000389513 -0.00109918 -0.0013398 
6.68848 7.52704 5.9916 0.00106177 -0.000458708 -0.00147585 
6.93258 5.76019 6.77043 0.000556527 -0.000971816 -0.00109337 
7.0444 7.375 5.86871 0.000951016 -0.000809692 -0.00192109 
7.42411 7.52922 5.7285 0.00087565 -0.000697703 -0.0022676 
7.29896 5.28274 7.29766 0.000655235 -0.000835793 -0.00106897 
8.0017 5.19507 7.27927 0.000400143 -0.000702393 -0.00123613 
8.00704 5.0755 7.76069 0.000617347 -0.000669134 -0.00105557 
7.63822 5.08465 8.00079 0.000543343 -0.000979297 -0.00104996 
8.37514 5.15166 7.5305 0.000489803 -0.000685342 -0.00115907 
8.36687 5.09282 8.00438 0.00053359 -0.000502061 -0.00114901 
9.05517 5.57545 7.06187 0.000310801 -0.00049848 -0.00130531 
8.75001 5.20053 7.76452 0.000473222 -0.000557848 -0.00103322 
7.00671 5.48114 7.11983 0.000589253 -0.000683674 -0.00079944 
7.65385 5.13979 7.50845 0.000525972 -0.000976585 -0.00113419 
7.98544 5.08114 8.25713 0.000495109 -0.00102503 -0.000952342 
7.62317 5.15663 8.50792 0.000666792 -0.00107733 -0.000695339 
6.99475 5.259 7.96572 0.000720459 -0.00089509 -0.00105679 
7.29551 5.17057 8.24137 0.000782609 -0.00085626 -0.00100949 
8.74095 5.31022 7.32562 0.000455397 -0.00064451 -0.00127144 
8.34715 5.31568 7.08682 0.000456633 -0.000844185 -0.00125542 
8.68288 5.49031 6.9429 0.000391741 -0.000830441 -0.00155851 
8.00718 5.4375 6.83287 0.000369263 -0.000971957 -0.00126513 
8.38329 5.59793 6.67884 0.000476012 -0.000782314 -0.00135361 
7.31352 5.52956 6.85014 0.00048062 -0.000926856 -0.00142531 
7.96836 5.21195 8.75145 0.000352441 -0.00100076 -0.000616417 
7.24746 5.30429 8.7068 0.000578818 -0.000793802 -0.000865174 
7.65013 5.32852 7.04322 0.000572623 -0.000785615 -0.00120111 
7.29232 5.16995 7.73204 0.000705265 -0.00109342 -0.00111325 
7.65689 5.62655 6.62722 0.000551595 -0.000979705 -0.00122024 
8.92813 7.95981 10.2457 0.000537272 -0.000978167 -0.000179021 
8.48003 8.09419 10.3473 0.000651147 -0.00103941 0.000105764 
8.73738 8.42708 10.261 0.000756931 -0.000857068 0.000134302 
8.24291 8.48855 10.3301 0.000751994 -0.000576113 0.00062178 
9.97241 7.37799 9.60516 0.000377465 -0.000540725 -0.000509747 
9.63191 7.47825 9.87527 0.000321131 -0.000756606 -0.00043576 
9.35815 7.81293 10.074 0.000429152 -0.000822481 -0.000238916 
7.78885 7.66669 10.3751 0.000441984 -0.00073234 1.70815e-06 
7.72191 7.22566 10.3038 0.000627789 -0.000900179 0.000116508 
9.68947 7.04741 9.71548 -1.03798e-05 -0.000662542 -0.000591845 
9.32449 7.2636 10.0055 0.000359029 -0.000811761 -0.000399427 
8.9563 6.99649 10.0888 0.000394011 -0.000660219 -0.000340668 
8.52936 6.74783 10.1184 0.000348325 -0.00098945 -0.000236281 
8.12711 6.95299 10.241 0.000545773 -0.00104237 -0.000120084 
7.97646 8.11747 10.3847 0.000739028 -0.000731487 0.000307321 
8.206 7.77519 10.378 0.00060162 -0.000878956 1.47613e-05 
8.17001 7.36644 10.3387 0.000705941 -0.00112503 5.14039e-06 
8.60158 7.63061 10.3166 0.000682748 -0.000974558 0.000131459 
8.58169 7.1847 10.2463 0.000625113 -0.000881506 -0.000272958 
9.67335 6.64013 9.52654 7.2293e-05 -0.000491001 -0.000545319 
9.32563 6.81014 9.85079 2.36615e-05 -0.000689051 -0.000664537 
8.91747 6.56388 9.92622 0.000280594 -0.000712918 -0.000458895 
8.9965 7.481 10.1887 0.000559787 -0.00102108 -0.000459932 
10.7023 7.73374 8.78455 0.000529383 -0.000680239 -0.000708804 
10.4683 7.73694 9.17755 0.000625261 -0.000609136 -0.000433171 
10.7605 7.37311 7.58956 -0.000147218 -0.000639951 -0.000680333 
10.576 7.22479 7.19569 -0.000472099 -0.000488034 -0.000771975 
10.8338 8.09387 8.53787 0.000666325 -0.000754899 -0.000644198 
10.3859 6.69604 8.56334 -0.000220133 -0.000216669 -0.000935515 
10.0316 6.92629 9.36213 -0.00026398 -0.000343741 -0.00098841 
10.9179 7.96961 8.04935 0.000334498 -0.000891298 -0.000205893 
10.9128 8.21187 7.7162 0.000582395 -0.000950225 -0.000228711 
10.9015 8.35666 8.19687 0.000820067 -0.000927053 -0.000386527 
10.2777 7.33734 9.28701 0.000324855 -0.00035996 -0.000759326 
10.5499 6.82421 8.09516 -0.000328442 -0.000242692 -0.00103798 
10.3241 7.07492 6.87839 -0.00043781 -0.000237004 -0.000916531 
10.5526 7.36132 8.89413 0.000373576 -0.000585575 -0.000605227 
10.7193 7.1713 8.04331 -1.77162e-05 -0.00050493 -0.000750045 
10.3631 7.00652 8.97167 -0.00026212 -0.000301438 -0.00125618 
10.6381 8.12115 8.97329 0.00105193 -0.000677597 -0.000381407 
10.8385 7.7407 8.37132 0.000326693 -0.000677808 -0.000406579 
10.7346 7.38758 8.45294 0.000265865 -0.000698306 -0.000746007 
10.8485 7.5465 7.99262 0.000117566 -0.000635709 -0.000520349 
10.7013 7.62392 7.18423 0.000207289 -0.000678632 -0.000648144 
10.5787 7.04125 8.52445 -0.000358797 -0.000144006 -0.000864866 
10.8675 7.78674 7.60922 0.000175915 -0.00065847 -0.000459708 
10.6037 6.98787 7.62029 -0.000478171 -0.000202768 -0.000776957 
5.93416 6.06898 8.48824 0.00101387 0.000150593 -0.000812457 
6.16766 6.34871 9.24119 0.00115262 -0.000238893 -0.00121504 
5.9361 6.28881 8.86862 0.00103376 0.000288564 -0.000939884 
6.65682 5.41691 7.99336 0.000676723 -0.000755856 -0.00119187 
5.91613 6.45877 7.06691 0.000983603 -0.000419921 -0.000843759 
6.88524 5.35614 7.5367 0.000456412 -0.000966128 -0.00105043 
6.52752 5.73654 8.89314 0.00055371 -0.000343781 -0.00115879 
5.72914 6.24521 8.08239 0.00103416 -0.000150356 -0.000842881 
6.34383 5.85385 7.20643 0.000616836 -0.000491053 -0.00103264 
6.50994 5.56348 7.58469 0.000565875 -0.000576269 -0.00115766 
6.20849 6.00157 8.90159 0.000787978 -5.50359e-05 -0.000934059 
6.66761 5.63923 7.15923 0.000585252 -0.000719635 -0.00110379 
5.82813 6.84903 6.89223 0.00118802 -0.000131006 -0.00105864 
6.02649 5.89171 8.11042 0.000973755 -0.000183216 -0.000836229 
6.24235 5.7724 8.50525 0.000815257 -3.02028e-05 -0.000926413 
6.91907 5.33108 8.40043 0.000772197 -0.000762538 -0.00114733 
6.33215 5.62774 8.05475 0.00078035 -0.000471298 -0.000915169 
6.04277 6.09697 7.30351 0.000810911 -0.000196035 -0.00101028 
6.19083 5.79729 7.65049 0.0007672 -0.000209378 -0.000851808 
5.91591 6.06044 7.74676 0.00105076 -0.00030887 -0.000782037 
5.63909 6.69674 7.32889 0.00142543 -0.000193606 -0.000720549 
5.77037 6.33458 7.51924 0.00116988 -0.000107154 -0.000824592 
6.23742 6.21416 6.89021 0.000721048 -0.000538953 -0.000817509 
5.58534 6.53743 7.77573 0.00142584 -0.000118394 -0.000739641 
6.56872 5.52799 8.46037 0.000832138 -0.000430019 -0.000962252 
10.1266 6.34669 8.64239 -0.000150682 -0.000313412 -0.000904302 
9.70186 6.53981 6.56228 0.000135789 -0.000102823 -0.0011664 
10.1784 6.6696 8.96424 -0.000380263 -0.000135311 -0.0012904 
10.3855 6.81956 7.22351 -0.000278214 -0.00026723 -0.000835151 
10.1975 6.30959 7.72213 -0.000277013 -0.000153321 -0.00100008 
9.95129 5.99026 7.86947 -0.000404668 -0.000167529 -0.00102369 
10.1321 6.21295 8.17686 -0.000177425 -0.000336934 -0.00125591 
9.91412 5.99887 8.3986 -0.000240377 -0.000136039 -0.00117744 
9.38835 5.67675 7.27133 0.000202899 -0.000508461 -0.00118196 
9.91571 6.4662 9.14832 -0.000280352 -0.000391311 -0.000729862 
9.95573 6.12125 7.39227 -0.000197295 3.94714e-05 -0.000856872 
9.70255 5.74149 8.0786 0.00011703 -0.000377469 -0.000914588 
9.77431 6.9292 6.38714 0.00033017 -4.5587e-05 -0.000847774 
9.70159 5.8019 7.56967 0.000121926 -0.000272788 -0.00115172 
10.4135 6.63351 7.67655 -0.000543249 -2.25391e-05 -0.000786776 
10.1829 6.48395 7.26069 -0.000305637 -4.79799e-05 -0.000861658 
10.0691 6.73643 6.79758 -0.000199605 -1.80669e-05 -0.00097774 
9.56401 6.17906 6.75284 0.000142816 -0.000468957 -0.00116756 
9.29438 6.28842 6.44502 0.000243678 -0.000638116 -0.00118601 
10.3457 6.49865 8.16261 -0.000242299 3.09274e-05 -0.00103315 
9.25014 5.89229 6.78539 0.000263038 -0.000558633 -0.00140123 
9.90356 6.33859 6.96311 -0.000120985 -0.000171535 -0.00107076 
9.64337 5.96095 7.11096 -8.17273e-05 -0.000206071 -0.00103806 
5.2994 8.75375 8.29402 0.00106963 -0.000636887 -0.000695086 
5.20673 8.40721 8.06007 0.00128851 -0.000570125 -0.0007312 
5.42017 8.71377 8.76896 0.00104919 -0.000534538 -0.000711987 
5.43841 8.37376 8.9705 0.00110791 -0.00051888 -0.000867366 
5.45932 9.08362 7.5728 0.00108688 -0.000506828 -0.00071906 
5.68 8.16626 6.73468 0.00137222 -0.000309158 -0.000797461 
5.6685 8.6429 9.25101 0.000753107 -0.000517635 -0.000728622 
5.25718 8.38929 7.61243 0.00114866 -0.000475647 -0.000658581 
5.29787 7.68235 7.47414 0.00121997 -0.00020771 -0.000857686 
5.60254 8.98292 7.12519 0.00144182 -0.000507051 -0.000644619 
5.68776 9.38609 7.36871 0.00105196 -0.000531816 -0.000696813 
5.29748 8.76508 7.81161 0.00119455 -0.000590841 -0.000579621 
5.18729 7.98832 7.88428 0.00091588 -0.000531006 -0.000887895 
5.2943 8.05087 7.43261 0.00102364 -0.000114557 -0.000829871 
5.27234 8.39934 8.55359 0.00116437 -0.000532448 -0.00072235 
5.20901 8.09838 8.34277 0.00102279 -0.00059196 -0.000875041 
5.43214 8.31717 7.13163 0.00123353 -0.000413941 -0.000593225 
5.45464 9.07593 8.52844 0.000831039 -0.000751363 -0.000815093 
5.4056 9.11095 8.05622 0.00105522 -0.000575014 -0.000640497 
5.46825 7.88899 7.04798 0.00117965 -0.000123353 -0.00096288 
5.71981 7.70249 6.71124 0.00119209 -0.000327734 -0.000820197 
5.63429 8.59476 6.87528 0.00135239 -0.000461859 -0.000629478 
5.40503 8.69352 7.33617 0.00119923 -0.000586572 -0.0008213 
5.58795 9.43075 7.83955 0.0010026 -0.000720768 -0.000574194 
5.5988 8.97822 8.95934 0.00082202 -0.000604111 -0.000717041 
6.13511 9.81321 8.88809 0.000869949 -0.00080458 -0.000542204 
5.83373 9.69814 7.5971 0.000858014 -0.000472971 -0.000609987 
5.78056 9.70798 8.12534 0.00106073 -0.000866314 -0.000590094 
5.84438 9.1034 9.24072 0.000762077 -0.000435182 -0.000464241 
5.58949 9.41483 8.33654 0.000938894 -0.000636465 -0.000706255 
6.3454 9.64136 9.32338 0.000662183 -0.000611914 -0.000285757 
6.77297 9.78807 9.49258 0.000802514 -0.00051379 -0.00030047 
6.27407 10.1962 7.93732 0.00112088 -0.000927214 -0.000466083 
6.45594 10.2592 7.53174 0.00130966 -0.000974787 -0.000302574 
6.87318 10.1104 9.21711 0.000775346 -0.000692753 -0.000277107 
5.69845 9.34105 8.80419 0.000733607 -0.000727067 -0.000353569 
6.18042 9.26049 9.47747 0.000762445 -0.000746029 -0.000386136 
6.58597 9.41048 9.66558 0.000734774 -0.000701606 -0.000232566 
5.85634 9.67513 8.60356 0.000921139 -0.000844847 -0.000529145 
6.07173 9.98876 8.36664 0.000918924 -0.000873256 -0.000634701 
6.13108 9.98159 7.48983 0.00145489 -0.000763764 -0.000577646 
5.99575 9.94163 7.90887 0.0010817 -0.000853404 -0.000586179 
7.00902 10.4065 8.84597 0.000669326 -0.000713914 -0.000155586 
6.65686 10.2648 8.78783 0.000977775 -0.000776676 -0.000377958 
6.79786 10.4751 8.39214 0.000964028 -0.000965957 -0.00028197 
6.50127 9.96636 9.11086 0.000660889 -0.000862048 -0.000498807 
5.98436 9.48813 9.08796 0.000714307 -0.000588937 -0.000424667 
6.32617 10.0849 8.69263 0.00111474 -0.000916791 -0.000729881 
6.43698 10.2843 8.33033 0.000966271 -0.000868268 -0.000489157 
7.67408 6.79787 10.1724 0.000415624 -0.000975318 -0.000160122 
7.28263 7.1071 10.1993 0.000612966 -0.000849179 -0.000182368 
6.86938 6.98613 10.0282 0.000555313 -0.000528013 -0.000418814 
6.49612 6.05076 9.26752 0.000668882 -0.000525281 -0.000967565 
8.47729 6.33587 9.9313 0.000254564 -0.000908306 -0.000351887 
8.07845 6.54031 10.0819 0.000393612 -0.000952443 -0.00051103 
7.63653 6.37995 9.97742 0.000446336 -0.000983776 -0.000286687 
7.24416 6.66577 10.0352 0.000614635 -0.000797752 -0.000489764 
6.84659 6.5429 9.8343 0.000641135 -0.000610181 -0.00077583 
6.48718 6.85761 9.79099 0.000934359 -0.000339982 -0.000783558 
6.52899 7.32512 9.96253 0.000926787 -0.0003424 -0.000813344 
6.13641 6.72951 9.47495 0.00118342 -9.94779e-05 -0.00107117 
8.03323 6.14213 9.85996 0.000236167 -0.00110925 -0.00044185 
7.60572 5.9857 9.71571 0.000547796 -0.00115084 -0.000407512 
7.22079 6.24583 9.80561 0.000500785 -0.0008374 -0.000837667 
6.83938 6.13433 9.56957 0.000757152 -0.000759583 -0.000963143 
7.5967 5.34788 8.9725 0.000679142 -0.000892788 -0.000662403 
7.98924 5.77316 9.5698 0.000106027 -0.0014264 -0.000780488 
7.58993 5.63311 9.37956 0.000777826 -0.0010741 -0.000858342 
7.21085 5.86378 9.50479 0.000704732 -0.00088899 -0.000909729 
6.84823 5.77958 9.23275 0.00083115 -0.000578704 -0.00104379 
7.21803 5.54184 9.13382 0.000582971 -0.000815635 -0.000751796 
6.87466 5.50422 8.83366 0.000665587 -0.000518722 -0.00102702 
6.48441 6.43323 9.56939 0.000779377 -0.000539275 -0.000843366 
6.68614 8.02225 5.95502 0.00111447 -0.000402392 -0.00136904 
5.97713 7.97338 6.42327 0.0014085 -3.71662e-06 -0.000798259 
6.29244 8.18635 6.1838 0.00117062 -0.000245771 -0.00135543 
5.94617 8.47165 6.48614 0.00133289 -0.000374255 -0.000755744 
6.30398 8.59131 6.2328 0.00115774 -0.000276501 -0.001078 
5.86192 8.9111 6.71531 0.00129782 -0.000501772 -0.000808983 
6.95939 8.82509 5.93828 0.00109822 -0.000117068 -0.00148406 
6.17029 8.94342 6.43139 0.000963941 -0.000324162 -0.000901012 
6.44011 9.32018 6.40651 0.00110273 -0.000224432 -0.000930888 
6.67428 8.46703 5.99265 0.00115514 -0.000109695 -0.00127565 
6.56638 8.92656 6.15563 0.00107511 -0.000116683 -0.00138695 
6.83008 9.28487 6.15943 0.00109147 -0.000221646 -0.00131853 
6.10464 9.33462 6.70073 0.0012692 -0.000536809 -0.000743526 
5.83981 9.28008 6.98666 0.00129218 -0.000442223 -0.000736764 
6.34762 9.67716 6.74193 0.0014683 -0.000424763 -0.000667334 
7.10782 8.34443 5.7973 0.00101548 -0.000247359 -0.00166169 
6.72705 9.66394 6.44263 0.0012607 -0.000414919 -0.00088838 
7.20784 9.22379 5.98252 0.00116204 -0.000335812 -0.00145883 
7.13801 9.64645 6.22664 0.00106594 -0.000179412 -0.00114811 
6.6695 9.98286 6.77544 0.00140857 -0.000520521 -0.000667627 
6.33276 9.96946 7.10733 0.00151512 -0.000621943 -0.000355014 
6.01391 9.66176 7.11975 0.0013945 -0.000641625 -0.000497041 
7.54066 9.57233 6.05983 0.00100689 -0.000392143 -0.00111464 
9.47401 10.3186 8.73594 0.000907596 -0.00105617 0.000406825 
9.67449 10.0251 8.97761 0.00104965 -0.00107349 0.000111812 
9.98028 9.90378 8.73977 0.00110206 -0.000953841 0.000249817 
10.4445 9.21996 8.82047 0.000932279 -0.0010928 5.07601e-05 
10.6284 8.84171 8.7736 0.000841263 -0.000971632 -0.000131928 
10.3477 9.45664 7.20455 0.000802143 -0.0009593 -0.000159721 
10.3987 9.61391 7.6713 0.000706052 -0.00118112 -6.91697e-05 
10.1578 9.32673 9.14662 0.00120204 -0.00100438 7.94567e-05 
10.3521 8.92183 9.16589 0.00108415 -0.00096808 -7.55252e-05 
10.7612 8.46293 8.67719 0.0010046 -0.000758211 -0.000464485 
9.79444 10.1849 8.4985 0.000996271 -0.00121432 0.000190073 
10.1639 9.91984 7.82736 0.000875261 -0.00108988 0.000106559 
9.90466 10.1843 8.02801 0.000804927 -0.0012664 0.000111751 
10.355 9.69304 8.16639 0.000966556 -0.00120143 -0.000169984 
10.1177 9.9362 8.33053 0.000740409 -0.00129143 5.50087e-05 
9.55307 9.77084 9.35781 0.00110489 -0.000791793 0.000486988 
9.93078 9.67086 9.10836 0.00108936 -0.000930258 -1.62157e-06 
10.4775 9.42842 8.43817 0.000823587 -0.0010535 -0.000136756 
10.8132 8.73575 8.31586 0.000951434 -0.000721154 -0.000217278 
10.585 9.36936 8.00234 0.000677132 -0.00110422 -8.64222e-05 
10.5945 9.2596 7.54667 0.000948282 -0.00100721 6.17188e-05 
10.7589 9.00916 7.93649 0.00088535 -0.000672731 -0.00014552 
10.6673 9.09699 8.3948 0.000918121 -0.000879028 -0.000153614 
10.2469 9.61817 8.71566 0.000961389 -0.00102121 1.86467e-07 
3 277 282 280 
3 25 275 282 
3 282 275 280 
3 274 273 276 
3 276 273 275 
3 273 274 272 
3 352 251 245 
3 255 242 253 
3 255 245 242 
3 282 253 27 
3 282 277 253 
3 277 255 253 
3 26 276 25 
3 25 276 275 
3 31 276 26 
3 31 274 276 
3 264 274 31 
3 32 375 31 
3 264 272 274 
3 377 363 375 
3 375 264 31 
3 377 375 372 
3 342 252 334 
3 352 252 251 
3 242 245 251 
3 352 334 252 
3 250 242 251 
3 250 249 242 
3 249 253 242 
3 27 25 282 
3 249 27 253 
3 28 25 27 
3 28 26 25 
3 29 26 28 
3 29 32 26 
3 32 31 26 
3 30 32 29 
3 373 32 30 
3 375 32 373 
3 372 375 373 
3 376 377 372 
3 371 370 376 
3 356 376 372 
3 370 371 358 
3 246 247 342 
3 342 247 252 
3 240 239 247 
3 247 239 252 
3 239 251 252 
3 250 251 239 
3 40 373 30 
3 356 373 40 
3 41 367 40 
3 356 372 373 
3 371 376 356 
3 367 371 356 
3 318 371 160 
3 318 358 371 
3 397 398 168 
3 246 398 238 
3 247 246 238 
3 246 168 398 
3 236 240 238 
3 238 240 247 
3 367 356 40 
3 160 371 367 
3 153 160 367 
3 156 155 157 
3 155 160 157 
3 155 318 160 
3 397 394 383 
3 398 397 383 
3 452 398 383 
3 452 238 398 
3 453 236 452 
3 452 236 238 
3 142 143 156 
3 157 142 156 
3 141 156 143 
3 156 141 155 
3 141 326 155 
3 326 141 162 
3 394 399 383 
3 394 400 399 
3 454 383 399 
3 454 452 383 
3 455 453 454 
3 454 453 452 
3 147 143 142 
3 147 146 143 
3 148 159 146 
3 143 159 141 
3 146 159 143 
3 162 141 159 
3 387 399 400 
3 456 399 387 
3 456 454 399 
3 458 454 456 
3 455 454 458 
3 459 461 458 
3 461 455 458 
3 461 459 462 
3 100 154 151 
3 151 154 144 
3 146 147 144 
3 147 151 144 
3 150 152 146 
3 144 150 146 
3 464 463 456 
3 456 463 458 
3 459 458 463 
3 465 459 463 
3 467 459 465 
3 467 469 462 
3 467 462 459 
3 468 462 469 
3 209 97 203 
3 100 97 93 
3 154 100 93 
3 100 203 97 
3 92 154 93 
3 92 150 154 
3 479 150 92 
3 154 150 144 
3 472 463 464 
3 465 463 472 
3 471 465 472 
3 470 465 471 
3 467 465 470 
3 88 467 470 
3 469 467 88 
3 75 80 88 
3 80 469 88 
3 202 211 79 
3 79 80 81 
3 102 202 79 
3 102 103 202 
3 103 102 114 
3 97 209 103 
3 97 103 104 
3 105 97 104 
3 105 93 97 
3 106 93 105 
3 106 107 92 
3 106 92 93 
3 479 92 107 
3 78 470 471 
3 77 470 78 
3 77 88 470 
3 75 88 77 
3 75 81 80 
3 74 73 81 
3 75 74 81 
3 73 79 81 
3 113 114 102 
3 73 113 102 
3 73 102 79 
3 112 104 114 
3 114 104 103 
3 111 105 112 
3 112 105 104 
3 106 105 111 
3 72 113 73 
3 72 73 74 
3 281 267 261 
3 260 261 267 
3 259 260 267 
3 262 260 259 
3 262 263 260 
3 263 262 265 
3 338 341 339 
3 335 341 266 
3 335 339 341 
3 280 258 277 
3 280 267 258 
3 258 266 277 
3 258 335 266 
3 275 259 280 
3 280 259 267 
3 273 262 259 
3 275 273 259 
3 265 262 272 
3 264 223 272 
3 272 262 273 
3 223 265 272 
3 214 223 363 
3 368 214 363 
3 214 368 366 
3 349 347 348 
3 245 341 338 
3 352 245 338 
3 338 347 352 
3 338 348 347 
3 255 341 245 
3 255 266 341 
3 266 255 277 
3 363 223 264 
3 368 363 377 
3 375 363 264 
3 365 368 377 
3 376 365 377 
3 360 368 365 
3 360 366 368 
3 360 365 359 
3 353 350 351 
3 347 351 334 
3 334 350 342 
3 351 350 334 
3 349 351 347 
3 347 334 352 
3 249 250 248 
3 241 27 249 
3 248 241 249 
3 28 27 241 
3 33 28 241 
3 34 29 33 
3 33 29 28 
3 30 29 34 
3 365 376 370 
3 369 374 359 
3 358 369 370 
3 369 359 370 
3 370 359 365 
3 374 369 317 
3 173 174 350 
3 353 173 350 
3 350 174 342 
3 342 174 246 
3 239 240 243 
3 244 248 243 
3 243 250 239 
3 248 250 243 
3 37 248 244 
3 37 241 248 
3 38 33 37 
3 37 33 241 
3 39 34 38 
3 38 34 33 
3 42 30 34 
3 39 42 34 
3 42 40 30 
3 41 40 42 
3 369 358 329 
3 309 358 318 
3 320 317 329 
3 329 317 369 
3 164 386 163 
3 168 163 386 
3 174 163 168 
3 397 168 386 
3 173 163 174 
3 174 168 246 
3 243 240 254 
3 254 240 236 
3 256 243 254 
3 256 244 243 
3 257 244 256 
3 257 24 244 
3 24 37 244 
3 24 38 37 
3 24 45 38 
3 39 38 45 
3 44 39 45 
3 43 39 44 
3 36 41 43 
3 43 42 39 
3 43 41 42 
3 36 153 41 
3 153 367 41 
3 157 160 153 
3 329 358 309 
3 309 318 155 
3 308 329 309 
3 308 320 329 
3 390 391 386 
3 164 390 386 
3 394 397 391 
3 391 397 386 
3 254 236 451 
3 451 236 453 
3 237 254 451 
3 237 256 254 
3 237 257 256 
3 237 189 257 
3 188 43 44 
3 36 43 188 
3 187 140 188 
3 140 36 188 
3 149 153 36 
3 140 149 36 
3 153 149 157 
3 157 149 142 
3 309 155 326 
3 328 308 326 
3 162 328 326 
3 308 309 326 
3 390 385 391 
3 390 379 385 
3 400 394 385 
3 385 394 391 
3 451 453 460 
3 460 453 455 
3 466 237 451 
3 460 466 451 
3 189 237 466 
3 190 191 466 
3 191 189 466 
3 191 190 192 
3 195 193 194 
3 187 193 196 
3 140 187 196 
3 187 194 193 
3 158 140 196 
3 158 149 140 
3 142 158 147 
3 142 149 158 
3 139 148 161 
3 139 159 148 
3 139 314 162 
3 139 162 159 
3 389 385 379 
3 389 400 385 
3 389 382 400 
3 382 387 400 
3 382 388 387 
3 464 387 388 
3 460 455 461 
3 457 461 462 
3 457 460 461 
3 466 460 457 
3 468 190 457 
3 457 190 466 
3 192 190 204 
3 205 206 192 
3 205 192 204 
3 193 195 207 
3 207 195 206 
3 210 206 205 
3 208 193 207 
3 208 196 193 
3 196 208 151 
3 158 196 151 
3 151 208 100 
3 158 151 147 
3 161 148 152 
3 152 148 146 
3 494 161 152 
3 495 145 161 
3 401 404 388 
3 382 401 388 
3 387 464 456 
3 388 404 472 
3 457 462 468 
3 473 468 469 
3 473 204 468 
3 204 190 468 
3 211 205 473 
3 473 205 204 
3 210 205 211 
3 210 207 206 
3 203 207 209 
3 203 208 207 
3 207 210 209 
3 208 203 100 
3 152 479 494 
3 152 150 479 
3 493 495 494 
3 494 495 161 
3 405 404 401 
3 418 472 404 
3 405 419 404 
3 388 472 464 
3 419 418 404 
3 471 472 418 
3 473 469 80 
3 211 80 79 
3 211 473 80 
3 209 202 103 
3 210 211 202 
3 210 202 209 
3 107 106 95 
3 485 107 95 
3 485 480 107 
3 480 479 107 
3 480 494 479 
3 493 494 480 
3 410 418 419 
3 411 78 471 
3 410 70 411 
3 418 410 411 
3 418 411 471 
3 71 78 411 
3 71 77 78 
3 82 77 71 
3 82 75 77 
3 74 75 82 
3 114 113 110 
3 109 112 110 
3 110 112 114 
3 108 111 112 
3 109 108 112 
3 101 111 108 
3 101 95 111 
3 95 106 111 
3 486 95 101 
3 485 95 486 
3 76 71 70 
3 86 71 76 
3 70 71 411 
3 82 71 86 
3 89 82 86 
3 89 74 82 
3 89 83 72 
3 89 72 74 
3 98 113 90 
3 90 113 72 
3 110 113 98 
3 96 109 98 
3 98 109 110 
3 94 109 96 
3 94 108 109 
3 101 108 94 
3 345 270 271 
3 269 271 261 
3 261 271 281 
3 267 281 258 
3 268 269 261 
3 260 268 261 
3 268 260 263 
3 231 268 263 
3 213 263 265 
3 230 213 265 
3 213 231 263 
3 217 215 212 
3 340 330 344 
3 333 354 346 
3 339 333 346 
3 339 346 348 
3 281 270 335 
3 335 270 333 
3 335 333 339 
3 281 335 258 
3 230 265 223 
3 230 223 214 
3 225 212 230 
3 225 230 214 
3 225 214 366 
3 224 225 366 
3 332 167 330 
3 343 349 348 
3 346 343 348 
3 343 337 349 
3 343 330 337 
3 339 348 338 
3 362 224 366 
3 360 362 366 
3 361 360 359 
3 361 362 360 
3 337 353 351 
3 337 167 166 
3 337 166 353 
3 337 351 349 
3 374 361 359 
3 374 355 361 
3 311 355 374 
3 317 311 374 
3 186 170 169 
3 166 173 353 
3 166 169 173 
3 169 165 173 
3 311 317 327 
3 327 317 320 
3 165 170 164 
3 163 165 164 
3 170 171 164 
3 165 163 173 
3 24 257 35 
3 201 45 35 
3 35 45 24 
3 44 45 201 
3 320 308 325 
3 324 320 325 
3 327 320 324 
3 324 325 323 
3 171 390 164 
3 171 393 390 
3 35 189 200 
3 35 257 189 
3 201 200 199 
3 201 35 200 
3 198 44 201 
3 199 198 201 
3 198 188 44 
3 194 187 198 
3 313 328 314 
3 325 308 328 
3 313 323 325 
3 328 313 325 
3 393 379 390 
3 393 392 379 
3 200 189 191 
3 197 191 192 
3 197 199 200 
3 197 200 191 
3 198 199 194 
3 194 199 197 
3 194 197 195 
3 188 198 187 
3 314 139 145 
3 314 328 162 
3 315 314 145 
3 315 313 314 
3 378 379 392 
3 378 396 389 
3 378 389 379 
3 382 389 396 
3 206 195 192 
3 195 197 192 
3 492 495 496 
3 492 145 495 
3 145 139 161 
3 315 145 492 
3 380 395 378 
3 396 401 382 
3 396 395 407 
3 396 407 401 
3 496 493 491 
3 496 495 493 
3 405 401 407 
3 416 405 407 
3 417 419 405 
3 416 417 405 
3 487 485 488 
3 487 480 485 
3 487 493 480 
3 487 491 493 
3 410 419 417 
3 425 426 417 
3 426 70 410 
3 417 426 410 
3 486 101 99 
3 484 486 99 
3 488 486 484 
3 488 485 486 
3 422 76 70 
3 426 422 70 
3 91 76 422 
3 91 85 76 
3 85 86 76 
3 85 84 86 
3 84 89 86 
3 83 89 84 
3 83 90 72 
3 68 90 83 
3 22 98 90 
3 96 98 22 
3 21 96 22 
3 20 96 21 
3 18 94 20 
3 20 94 96 
3 99 101 94 
3 18 99 94 
3 69 84 85 
3 68 83 84 
3 69 68 84 
3 17 22 68 
3 68 22 90 
3 21 22 17 
3 271 270 281 
3 443 279 269 
3 271 279 345 
3 269 279 271 
3 278 269 268 
3 278 443 269 
3 215 216 231 
3 231 216 278 
3 231 278 268 
3 212 215 213 
3 213 215 231 
3 212 213 230 
3 344 343 346 
3 354 344 346 
3 354 336 344 
3 336 340 344 
3 345 333 270 
3 345 354 333 
3 449 354 345 
3 449 345 279 
3 216 215 218 
3 219 218 217 
3 217 218 215 
3 220 212 225 
3 220 219 217 
3 220 217 212 
3 221 220 224 
3 224 220 225 
3 330 167 337 
3 340 332 330 
3 332 340 331 
3 343 344 330 
3 340 430 331 
3 430 340 336 
3 222 224 362 
3 222 221 224 
3 355 362 361 
3 355 222 362 
3 332 185 167 
3 167 185 184 
3 167 184 166 
3 185 332 331 
3 364 222 355 
3 357 364 355 
3 321 357 311 
3 311 357 355 
3 169 170 165 
3 184 169 166 
3 184 186 169 
3 182 186 184 
3 321 327 319 
3 321 311 327 
3 186 180 181 
3 170 186 181 
3 170 181 171 
3 180 186 182 
3 291 290 126 
3 299 298 290 
3 291 299 290 
3 301 300 299 
3 299 300 298 
3 305 300 301 
3 319 327 324 
3 306 319 324 
3 307 319 306 
3 306 324 323 
3 181 178 171 
3 171 178 393 
3 123 126 124 
3 124 126 290 
3 297 290 298 
3 297 124 290 
3 284 297 298 
3 300 284 298 
3 283 300 305 
3 283 284 300 
3 322 306 310 
3 322 307 306 
3 306 323 310 
3 310 323 313 
3 178 392 393 
3 392 381 380 
3 178 381 392 
3 384 380 381 
3 121 123 124 
3 122 121 124 
3 297 122 124 
3 297 286 122 
3 285 286 284 
3 284 286 297 
3 55 285 283 
3 283 285 284 
3 63 322 483 
3 483 322 310 
3 310 315 483 
3 310 313 315 
3 380 378 392 
3 380 402 395 
3 406 402 384 
3 384 402 380 
3 121 122 118 
3 129 122 286 
3 129 118 122 
3 56 129 286 
3 285 56 286 
3 56 285 64 
3 492 496 478 
3 63 483 478 
3 483 492 478 
3 315 492 483 
3 395 396 378 
3 406 413 402 
3 402 413 395 
3 413 407 395 
3 478 496 477 
3 477 496 491 
3 424 416 413 
3 413 416 407 
3 403 416 424 
3 403 417 416 
3 497 488 476 
3 497 487 488 
3 477 491 497 
3 497 491 487 
3 425 417 403 
3 423 425 403 
3 421 425 423 
3 421 426 425 
3 475 484 474 
3 474 484 99 
3 476 484 475 
3 476 488 484 
3 420 422 421 
3 421 422 426 
3 6 91 420 
3 420 91 422 
3 87 91 6 
3 23 87 6 
3 87 85 91 
3 12 11 23 
3 23 11 87 
3 14 13 12 
3 12 13 11 
3 14 15 13 
3 13 15 21 
3 15 20 21 
3 16 18 15 
3 15 18 20 
3 474 18 16 
3 474 99 18 
3 69 85 87 
3 11 69 87 
3 11 17 69 
3 13 17 11 
3 69 17 68 
3 21 17 13 
3 448 279 443 
3 226 443 278 
3 226 445 443 
3 226 278 216 
3 449 336 354 
3 447 336 449 
3 448 447 449 
3 448 449 279 
3 448 446 447 
3 445 446 448 
3 444 445 226 
3 443 445 448 
3 227 216 218 
3 227 226 216 
3 444 226 227 
3 228 218 219 
3 228 227 218 
3 221 219 220 
3 229 228 219 
3 229 219 221 
3 450 331 430 
3 447 430 336 
3 447 442 430 
3 442 450 430 
3 441 442 446 
3 446 442 447 
3 440 446 445 
3 440 441 446 
3 440 445 444 
3 439 440 444 
3 232 444 227 
3 232 439 444 
3 232 227 228 
3 233 232 228 
3 234 233 229 
3 229 233 228 
3 235 221 222 
3 235 229 221 
3 234 229 235 
3 235 222 364 
3 438 172 185 
3 450 436 438 
3 331 438 185 
3 450 438 331 
3 435 450 442 
3 435 436 450 
3 435 442 441 
3 434 435 441 
3 433 441 440 
3 433 434 441 
3 433 440 439 
3 432 433 439 
3 431 439 232 
3 431 432 439 
3 304 431 233 
3 233 431 232 
3 303 304 234 
3 234 304 233 
3 302 303 234 
3 235 302 234 
3 312 364 357 
3 364 302 235 
3 312 302 364 
3 312 357 321 
3 185 182 184 
3 185 172 182 
3 175 438 436 
3 175 172 438 
3 429 436 435 
3 429 437 436 
3 429 435 434 
3 428 429 434 
3 427 434 433 
3 427 428 434 
3 296 427 432 
3 432 427 433 
3 295 432 431 
3 295 296 432 
3 294 295 304 
3 304 295 431 
3 293 294 303 
3 303 294 304 
3 292 293 303 
3 302 292 303 
3 316 287 312 
3 312 292 302 
3 321 319 316 
3 312 321 316 
3 176 181 180 
3 172 180 182 
3 180 177 176 
3 172 177 180 
3 119 177 175 
3 175 177 172 
3 437 175 436 
3 437 119 175 
3 136 429 428 
3 136 437 429 
3 428 126 136 
3 428 291 126 
3 427 291 428 
3 296 291 427 
3 296 299 291 
3 295 301 296 
3 296 301 299 
3 294 301 295 
3 294 305 301 
3 293 305 294 
3 288 289 293 
3 293 289 305 
3 292 288 293 
3 292 287 288 
3 287 292 312 
3 65 287 316 
3 316 307 65 
3 316 319 307 
3 176 183 178 
3 181 176 178 
3 179 183 176 
3 177 179 176 
3 179 177 119 
3 137 179 119 
3 134 119 437 
3 134 137 119 
3 123 134 136 
3 136 134 437 
3 136 126 123 
3 133 134 123 
3 289 55 283 
3 305 289 283 
3 50 289 288 
3 54 55 289 
3 50 288 287 
3 50 54 289 
3 50 287 65 
3 49 51 65 
3 49 307 322 
3 49 65 307 
3 381 178 183 
3 179 125 183 
3 183 125 384 
3 183 384 381 
3 125 179 137 
3 120 125 137 
3 115 137 134 
3 115 120 137 
3 117 135 133 
3 133 115 134 
3 133 121 117 
3 133 123 121 
3 55 64 285 
3 55 47 64 
3 48 47 54 
3 54 47 55 
3 51 54 50 
3 51 48 54 
3 52 51 49 
3 65 51 50 
3 49 63 52 
3 49 322 63 
3 125 128 384 
3 384 128 406 
3 128 125 120 
3 132 128 120 
3 135 132 120 
3 115 135 120 
3 138 116 117 
3 133 135 115 
3 131 138 118 
3 118 138 117 
3 118 117 121 
3 62 131 129 
3 129 131 118 
3 61 62 56 
3 56 62 129 
3 60 61 64 
3 47 60 64 
3 64 61 56 
3 58 47 48 
3 58 60 47 
3 52 48 51 
3 46 58 48 
3 482 46 52 
3 52 46 48 
3 63 478 482 
3 52 63 482 
3 128 414 406 
3 406 414 424 
3 415 414 132 
3 132 414 128 
3 116 132 135 
3 116 415 132 
3 127 116 138 
3 117 116 135 
3 130 127 138 
3 131 130 138 
3 19 131 62 
3 19 130 131 
3 66 62 61 
3 66 19 62 
3 67 61 60 
3 67 66 61 
3 59 60 58 
3 59 67 60 
3 57 58 46 
3 57 59 58 
3 481 46 482 
3 481 57 46 
3 482 477 481 
3 482 478 477 
3 424 413 406 
3 415 408 414 
3 414 408 424 
3 408 403 424 
3 409 408 415 
3 116 127 415 
3 10 409 127 
3 127 409 415 
3 9 10 130 
3 130 10 127 
3 9 130 19 
3 8 9 19 
3 8 19 66 
3 7 8 66 
3 53 7 67 
3 67 7 66 
3 489 53 59 
3 59 53 67 
3 490 489 57 
3 57 489 59 
3 57 481 490 
3 490 481 497 
3 490 497 476 
3 477 497 481 
3 423 403 408 
3 409 412 423 
3 408 409 423 
3 412 421 423 
3 5 412 10 
3 10 412 409 
3 4 10 9 
3 4 5 10 
3 3 9 8 
3 3 4 9 
3 2 8 7 
3 2 3 8 
3 1 7 53 
3 1 2 7 
3 0 53 489 
3 0 1 53 
3 489 475 0 
3 0 475 474 
3 490 475 489 
3 476 475 490 
3 420 421 412 
3 5 420 412 
3 5 6 420 
3 4 6 5 
3 4 23 6 
3 3 23 4 
3 3 12 23 
3 2 12 3 
3 2 14 12 
3 1 14 2 
3 1 16 14 
3 16 15 14 
3 0 16 1 
3 474 16 0 
