ply
format ascii 1.0
element vertex 362
property float x
property float y
property float z
element face 720
property list int int vertex_index
end_header
-2.000000 0.000000 0.000000
-1.966831 0.000000 -0.362733
-1.966831 0.000000 0.362733
-1.957602 -0.696899 -0.215354
-1.957602 -0.696899 0.215354
-1.957602 0.696899 -0.215354
-1.957602 0.696899 0.215354
-1.863786 0.000000 -0.725465
-1.863786 0.000000 0.725465
-1.878248 -0.706197 -0.589496
-1.878248 -0.706197 0.589496
-1.878248 0.706197 -0.589496
-1.878248 0.706197 0.589496
-1.824506 -1.393799 -0.430707
-1.868345 -1.427288 0.000000
-1.824506 -1.393799 0.430707
-1.824506 1.393799 -0.430707
-1.868345 1.427288 0.000000
-1.824506 1.393799 0.430707
-1.701302 0.000000 -1.051462
-1.701302 0.000000 1.051462
-1.732016 -0.689959 -0.938674
-1.732016 -0.689959 0.938674
-1.732016 0.689959 -0.938674
-1.732016 0.689959 0.938674
-1.703290 -1.379917 -0.789151
-1.703290 -1.379917 0.789151
-1.703290 1.379917 -0.789151
-1.703290 1.379917 0.789151
-1.691410 -2.090698 -0.215354
-1.691410 -2.090698 0.215354
-1.691410 2.090698 -0.215354
-1.691410 2.090698 0.215354
-1.618034 -2.000000 -0.618034
-1.618034 -2.000000 0.618034
-1.618034 2.000000 -0.618034
-1.618034 2.000000 0.618034
-1.518807 -0.426418 -1.283654
-1.518807 -0.426418 1.283654
-1.518807 0.426418 -1.283654
-1.518807 0.426418 1.283654
-1.525150 -1.142650 -1.160821
-1.525150 -1.142650 1.160821
-1.525150 1.142650 -1.160821
-1.525150 1.142650 1.160821
-1.479109 -2.553745 -0.426418
-1.513919 -2.613846 0.000000
-1.479109 -2.553745 0.426418
-1.479109 2.553745 -0.426418
-1.513919 2.613846 0.000000
-1.479109 2.553745 0.426418
-1.476056 -1.824506 -0.994511
-1.476056 -1.824506 0.994511
-1.476056 1.824506 -0.994511
-1.476056 1.824506 0.994511
-1.342960 -2.521405 -0.779157
-1.342960 -2.521405 0.779157
-1.342960 2.521405 -0.779157
-1.342960 2.521405 0.779157
-1.283654 -3.037614 -0.213209
-1.283654 -3.037614 0.213209
-1.283654 3.037614 -0.213209
-1.283654 3.037614 0.213209
-1.276873 -0.852836 -1.479109
-1.276873 -0.852836 1.479109
-1.306923 0.000000 -1.513919
-1.306923 0.000000 1.513919
-1.276873 0.852836 -1.479109
-1.276873 0.852836 1.479109
-1.260703 -1.558314 -1.342961
-1.260703 -1.558314 1.342961
-1.260703 1.558314 -1.342961
-1.260703 1.558314 1.342961
-1.160821 -3.050300 -0.571325
-1.160821 -3.050300 0.571325
-1.160821 3.050300 -0.571325
-1.160821 3.050300 0.571325
-1.154701 -2.309401 -1.154701
-1.154701 -2.309401 1.154701
-1.154701 2.309401 -1.154701
-1.154701 2.309401 1.154701
-1.051462 -3.402603 0.000000
-1.051462 3.402603 0.000000
-1.000000 -1.236068 -1.618034
-1.000000 -1.236068 1.618034
-1.045349 -0.430707 -1.691410
-1.045349 -0.430707 1.691410
-1.045349 0.430707 -1.691410
-1.045349 0.430707 1.691410
-1.000000 1.236068 -1.618034
-1.000000 1.236068 1.618034
-0.994511 -2.952113 -0.912253
-0.994511 -2.952113 0.912253
-0.994511 2.952113 -0.912253
-0.994511 2.952113 0.912253
-0.938674 -3.464032 -0.344979
-0.938674 -3.464032 0.344979
-0.938674 3.464032 -0.344979
-0.938674 3.464032 0.344979
-0.912253 -1.989022 -1.476056
-0.912253 -1.989022 1.476056
-0.912253 1.989022 -1.476056
-0.912253 1.989022 1.476056
-0.789151 -3.406581 -0.689959
-0.789151 -3.406581 0.689959
-0.789151 3.406581 -0.689959
-0.789151 3.406581 0.689959
-0.779157 -2.685921 -1.260703
-0.779157 -2.685921 1.260703
-0.779157 2.685921 -1.260703
-0.779157 2.685921 1.260703
-0.725465 -3.727573 0.000000
-0.725465 3.727573 0.000000
-0.689959 -1.578301 -1.703290
-0.689959 -1.578301 1.703290
-0.696899 -0.861415 -1.824506
-0.696899 -0.861415 1.824506
-0.713644 0.000000 -1.868345
-0.713644 0.000000 1.868345
-0.696899 0.861415 -1.824506
-0.696899 0.861415 1.824506
-0.689959 1.578301 -1.703290
-0.689959 1.578301 1.703290
-0.618034 -3.236068 -1.000000
-0.618034 -3.236068 1.000000
-0.618034 3.236068 -1.000000
-0.618034 3.236068 1.000000
-0.589496 -3.756496 -0.353098
-0.589496 -3.756496 0.353098
-0.589496 3.756496 -0.353098
-0.589496 3.756496 0.353098
-0.571325 -2.321642 -1.525150
-0.571325 -2.321642 1.525150
-0.571325 2.321642 -1.525150
-0.571325 2.321642 1.525150
-0.430707 -3.649012 -0.696899
-0.430707 -3.649012 0.696899
-0.426418 -2.958219 -1.276873
-0.426418 -2.958219 1.276873
-0.426418 2.958219 -1.276873
-0.426418 2.958219 1.276873
-0.430707 3.649012 -0.696899
-0.430707 3.649012 0.696899
-0.362733 -3.933662 0.000000
-0.362733 3.933662 0.000000
-0.344979 -1.877349 -1.732016
-0.344979 -1.877349 1.732016
-0.353098 -1.178993 -1.878248
-0.353098 -1.178993 1.878248
-0.348450 -0.430707 -1.957602
-0.348450 -0.430707 1.957602
-0.348450 0.430707 -1.957602
-0.348450 0.430707 1.957602
-0.353098 1.178993 -1.878248
-0.353098 1.178993 1.878248
-0.344979 1.877349 -1.732016
-0.344979 1.877349 1.732016
-0.215354 -3.915204 -0.348450
-0.215354 -3.915204 0.348450
-0.215354 -3.382820 -1.045349
-0.215354 -3.382820 1.045349
-0.213209 -2.567307 -1.518807
-0.213209 -2.567307 1.518807
-0.213209 2.567307 -1.518807
-0.213209 2.567307 1.518807
-0.215354 3.382820 -1.045349
-0.215354 3.382820 1.045349
-0.215354 3.915204 -0.348450
-0.215354 3.915204 0.348450
0.000000 -4.000000 0.000000
0.000000 -3.736689 -0.713644
0.000000 -3.736689 0.713644
0.000000 -3.027838 -1.306923
0.000000 -3.027838 1.306923
0.000000 -2.102924 -1.701302
0.000000 -2.102924 1.701302
0.000000 -1.450931 -1.863786
0.000000 -1.450931 1.863786
0.000000 -0.725465 -1.966831
0.000000 -0.725465 1.966831
0.000000 0.000000 -2.000000
0.000000 0.000000 2.000000
0.000000 0.725465 -1.966831
0.000000 0.725465 1.966831
0.000000 1.450931 -1.863786
0.000000 1.450931 1.863786
0.000000 2.102924 -1.701302
0.000000 2.102924 1.701302
0.000000 3.027838 -1.306923
0.000000 3.027838 1.306923
0.000000 3.736689 -0.713644
0.000000 3.736689 0.713644
0.000000 4.000000 0.000000
0.215354 -3.915204 -0.348450
0.215354 -3.915204 0.348450
0.215354 -3.382820 -1.045349
0.215354 -3.382820 1.045349
0.213209 -2.567307 -1.518807
0.213209 -2.567307 1.518807
0.213209 2.567307 -1.518807
0.213209 2.567307 1.518807
0.215354 3.382820 -1.045349
0.215354 3.382820 1.045349
0.215354 3.915204 -0.348450
0.215354 3.915204 0.348450
0.344979 -1.877349 -1.732016
0.344979 -1.877349 1.732016
0.353098 -1.178993 -1.878248
0.353098 -1.178993 1.878248
0.348450 -0.430707 -1.957602
0.348450 -0.430707 1.957602
0.348450 0.430707 -1.957602
0.348450 0.430707 1.957602
0.353098 1.178993 -1.878248
0.353098 1.178993 1.878248
0.344979 1.877349 -1.732016
0.344979 1.877349 1.732016
0.362733 -3.933662 0.000000
0.362733 3.933662 0.000000
0.430707 -3.649012 -0.696899
0.430707 -3.649012 0.696899
0.426418 -2.958219 -1.276873
0.426418 -2.958219 1.276873
0.426418 2.958219 -1.276873
0.426418 2.958219 1.276873
0.430707 3.649012 -0.696899
0.430707 3.649012 0.696899
0.571325 -2.321642 1.525150
0.571325 -2.321642 -1.525150
0.571325 2.321642 -1.525150
0.571325 2.321642 1.525150
0.589496 -3.756496 -0.353098
0.589496 -3.756496 0.353098
0.589496 3.756496 -0.353098
0.589496 3.756496 0.353098
0.618034 -3.236068 -1.000000
0.618034 -3.236068 1.000000
0.618034 3.236068 -1.000000
0.618034 3.236068 1.000000
0.689959 -1.578301 -1.703290
0.689959 -1.578301 1.703290
0.696899 -0.861415 -1.824506
0.696899 -0.861415 1.824506
0.713644 0.000000 -1.868345
0.713644 0.000000 1.868345
0.696899 0.861415 -1.824506
0.696899 0.861415 1.824506
0.689959 1.578301 -1.703290
0.689959 1.578301 1.703290
0.725465 -3.727573 0.000000
0.725465 3.727573 0.000000
0.779157 -2.685921 -1.260703
0.779157 -2.685921 1.260703
0.779157 2.685921 -1.260703
0.779157 2.685921 1.260703
0.789151 -3.406581 -0.689959
0.789151 -3.406581 0.689959
0.789151 3.406581 -0.689959
0.789151 3.406581 0.689959
0.912253 -1.989022 -1.476056
0.912253 -1.989022 1.476056
0.912253 1.989022 -1.476056
0.912253 1.989022 1.476056
0.938674 -3.464032 -0.344979
0.938674 -3.464032 0.344979
0.938674 3.464032 -0.344979
0.938674 3.464032 0.344979
0.994511 -2.952113 -0.912253
0.994511 -2.952113 0.912253
0.994511 2.952113 -0.912253
0.994511 2.952113 0.912253
1.000000 -1.236068 -1.618034
1.000000 -1.236068 1.618034
1.045349 -0.430707 -1.691410
1.045349 -0.430707 1.691410
1.045349 0.430707 -1.691410
1.045349 0.430707 1.691410
1.000000 1.236068 -1.618034
1.000000 1.236068 1.618034
1.051462 -3.402603 0.000000
1.051462 3.402603 0.000000
1.154701 -2.309401 -1.154701
1.154701 -2.309401 1.154701
1.154701 2.309401 -1.154701
1.154701 2.309401 1.154701
1.160821 -3.050300 0.571325
1.160821 -3.050300 -0.571325
1.160821 3.050300 -0.571325
1.160821 3.050300 0.571325
1.260703 -1.558314 -1.342961
1.260703 -1.558314 1.342961
1.260703 1.558314 -1.342961
1.260703 1.558314 1.342961
1.276873 -0.852836 -1.479109
1.276873 -0.852836 1.479109
1.306923 0.000000 -1.513919
1.306923 0.000000 1.513919
1.276873 0.852836 -1.479109
1.276873 0.852836 1.479109
1.283654 -3.037614 -0.213209
1.283654 -3.037614 0.213209
1.283654 3.037614 -0.213209
1.283654 3.037614 0.213209
1.342960 -2.521405 -0.779157
1.342960 -2.521405 0.779157
1.342960 2.521405 -0.779157
1.342960 2.521405 0.779157
1.476056 -1.824506 -0.994511
1.476056 -1.824506 0.994511
1.476056 1.824506 -0.994511
1.476056 1.824506 0.994511
1.479109 -2.553745 -0.426418
1.513919 -2.613846 0.000000
1.479109 -2.553745 0.426418
1.479109 2.553745 -0.426418
1.513919 2.613846 0.000000
1.479109 2.553745 0.426418
1.525150 -1.142650 -1.160821
1.525150 -1.142650 1.160821
1.525150 1.142650 -1.160821
1.525150 1.142650 1.160821
1.518807 -0.426418 -1.283654
1.518807 -0.426418 1.283654
1.518807 0.426418 -1.283654
1.518807 0.426418 1.283654
1.618034 -2.000000 -0.618034
1.618034 -2.000000 0.618034
1.618034 2.000000 -0.618034
1.618034 2.000000 0.618034
1.691410 -2.090698 -0.215354
1.691410 -2.090698 0.215354
1.691410 2.090698 -0.215354
1.691410 2.090698 0.215354
1.703290 -1.379917 -0.789151
1.703290 -1.379917 0.789151
1.703290 1.379917 -0.789151
1.703290 1.379917 0.789151
1.732016 -0.689959 -0.938674
1.732016 -0.689959 0.938674
1.732016 0.689959 -0.938674
1.732016 0.689959 0.938674
1.701302 0.000000 -1.051462
1.701302 0.000000 1.051462
1.824506 -1.393799 -0.430707
1.868345 -1.427288 0.000000
1.824506 -1.393799 0.430707
1.824506 1.393799 -0.430707
1.868345 1.427288 0.000000
1.824506 1.393799 0.430707
1.878248 -0.706197 -0.589496
1.878248 -0.706197 0.589496
1.878248 0.706197 -0.589496
1.878248 0.706197 0.589496
1.863786 0.000000 -0.725465
1.863786 0.000000 0.725465
1.957602 -0.696899 -0.215354
1.957602 -0.696899 0.215354
1.957602 0.696899 -0.215354
1.957602 0.696899 0.215354
1.966831 0.000000 -0.362733
1.966831 0.000000 0.362733
2.000000 0.000000 0.000000
3 82 62 98
3 98 62 76
3 98 76 106
3 106 76 94
3 106 94 126
3 62 50 76
3 76 50 58
3 76 58 94
3 50 36 58
3 36 28 54
3 54 28 44
3 54 44 72
3 72 44 68
3 72 68 90
3 28 24 44
3 44 24 40
3 44 40 68
3 24 20 40
3 126 110 140
3 140 110 134
3 140 134 164
3 164 134 156
3 164 156 187
3 110 102 134
3 134 102 122
3 134 122 156
3 102 90 122
3 36 54 58
3 58 54 80
3 58 80 94
3 94 80 110
3 94 110 126
3 54 72 80
3 80 72 102
3 80 102 110
3 72 90 102
3 82 98 112
3 112 98 130
3 112 130 144
3 144 130 168
3 144 168 192
3 98 106 130
3 130 106 142
3 130 142 168
3 106 126 142
3 126 140 166
3 166 140 189
3 166 189 202
3 202 189 224
3 202 224 238
3 140 164 189
3 189 164 200
3 189 200 224
3 164 187 200
3 192 204 218
3 218 204 234
3 218 234 250
3 250 234 266
3 250 266 280
3 204 226 234
3 234 226 258
3 234 258 266
3 226 238 258
3 126 166 142
3 142 166 191
3 142 191 168
3 168 191 204
3 168 204 192
3 166 202 191
3 191 202 226
3 191 226 204
3 202 238 226
3 82 112 97
3 97 112 129
3 97 129 105
3 105 129 141
3 105 141 125
3 112 144 129
3 129 144 167
3 129 167 141
3 144 192 167
3 192 218 203
3 203 218 233
3 203 233 225
3 225 233 257
3 225 257 237
3 218 250 233
3 233 250 265
3 233 265 257
3 250 280 265
3 125 165 139
3 139 165 188
3 139 188 163
3 163 188 199
3 163 199 186
3 165 201 188
3 188 201 223
3 188 223 199
3 201 237 223
3 192 203 167
3 167 203 190
3 167 190 141
3 141 190 165
3 141 165 125
3 203 225 190
3 190 225 201
3 190 201 165
3 225 237 201
3 82 97 61
3 61 97 75
3 61 75 48
3 48 75 57
3 48 57 35
3 97 105 75
3 75 105 93
3 75 93 57
3 105 125 93
3 125 139 109
3 109 139 133
3 109 133 101
3 101 133 121
3 101 121 89
3 139 163 133
3 133 163 155
3 133 155 121
3 163 186 155
3 35 53 27
3 27 53 43
3 27 43 23
3 23 43 39
3 23 39 19
3 53 71 43
3 43 71 67
3 43 67 39
3 71 89 67
3 125 109 93
3 93 109 79
3 93 79 57
3 57 79 53
3 57 53 35
3 109 101 79
3 79 101 71
3 79 71 53
3 101 89 71
3 82 61 62
3 62 61 49
3 62 49 50
3 50 49 32
3 50 32 36
3 61 48 49
3 49 48 31
3 49 31 32
3 48 35 31
3 35 27 16
3 16 27 11
3 16 11 5
3 5 11 1
3 5 1 0
3 27 23 11
3 11 23 7
3 11 7 1
3 23 19 7
3 36 18 28
3 28 18 12
3 28 12 24
3 24 12 8
3 24 8 20
3 18 6 12
3 12 6 2
3 12 2 8
3 6 0 2
3 35 16 31
3 31 16 17
3 31 17 32
3 32 17 18
3 32 18 36
3 16 5 17
3 17 5 6
3 17 6 18
3 5 0 6
3 280 266 302
3 302 266 288
3 302 288 316
3 316 288 306
3 316 306 328
3 266 258 288
3 288 258 270
3 288 270 306
3 258 238 270
3 238 224 254
3 254 224 230
3 254 230 262
3 262 230 248
3 262 248 278
3 224 200 230
3 230 200 216
3 230 216 248
3 200 187 216
3 328 310 336
3 336 310 320
3 336 320 340
3 340 320 324
3 340 324 342
3 310 292 320
3 320 292 298
3 320 298 324
3 292 278 298
3 238 254 270
3 270 254 284
3 270 284 306
3 306 284 310
3 306 310 328
3 254 262 284
3 284 262 292
3 284 292 310
3 262 278 292
3 187 156 185
3 185 156 154
3 185 154 183
3 183 154 152
3 183 152 181
3 156 122 154
3 154 122 120
3 154 120 152
3 122 90 120
3 90 68 88
3 88 68 66
3 88 66 86
3 86 66 64
3 86 64 84
3 68 40 66
3 66 40 38
3 66 38 64
3 40 20 38
3 181 150 179
3 179 150 148
3 179 148 177
3 177 148 146
3 177 146 175
3 150 116 148
3 148 116 114
3 148 114 146
3 116 84 114
3 90 88 120
3 120 88 118
3 120 118 152
3 152 118 150
3 152 150 181
3 88 86 118
3 118 86 116
3 118 116 150
3 86 84 116
3 20 8 22
3 22 8 10
3 22 10 26
3 26 10 15
3 26 15 34
3 8 2 10
3 10 2 4
3 10 4 15
3 2 0 4
3 0 1 3
3 3 1 9
3 3 9 13
3 13 9 25
3 13 25 33
3 1 7 9
3 9 7 21
3 9 21 25
3 7 19 21
3 34 30 47
3 47 30 46
3 47 46 60
3 60 46 59
3 60 59 81
3 30 29 46
3 46 29 45
3 46 45 59
3 29 33 45
3 0 3 4
3 4 3 14
3 4 14 15
3 15 14 30
3 15 30 34
3 3 13 14
3 14 13 29
3 14 29 30
3 13 33 29
3 19 39 37
3 37 39 65
3 37 65 63
3 63 65 85
3 63 85 83
3 39 67 65
3 65 67 87
3 65 87 85
3 67 89 87
3 89 121 119
3 119 121 153
3 119 153 151
3 151 153 182
3 151 182 180
3 121 155 153
3 153 155 184
3 153 184 182
3 155 186 184
3 83 115 113
3 113 115 147
3 113 147 145
3 145 147 176
3 145 176 174
3 115 149 147
3 147 149 178
3 147 178 176
3 149 180 178
3 89 119 87
3 87 119 117
3 87 117 85
3 85 117 115
3 85 115 83
3 119 151 117
3 117 151 149
3 117 149 115
3 151 180 149
3 186 199 215
3 215 199 229
3 215 229 247
3 247 229 261
3 247 261 277
3 199 223 229
3 229 223 253
3 229 253 261
3 223 237 253
3 237 257 269
3 269 257 287
3 269 287 305
3 305 287 314
3 305 314 327
3 257 265 287
3 287 265 301
3 287 301 314
3 265 280 301
3 277 291 297
3 297 291 319
3 297 319 323
3 323 319 339
3 323 339 341
3 291 309 319
3 319 309 335
3 319 335 339
3 309 327 335
3 237 269 253
3 253 269 283
3 253 283 261
3 261 283 291
3 261 291 277
3 269 305 283
3 283 305 309
3 283 309 291
3 305 327 309
3 279 300 264
3 264 300 285
3 264 285 256
3 256 285 268
3 256 268 236
3 300 313 285
3 285 313 304
3 285 304 268
3 313 326 304
3 326 334 308
3 308 334 318
3 308 318 290
3 290 318 294
3 290 294 272
3 334 338 318
3 318 338 322
3 318 322 294
3 338 342 322
3 236 252 222
3 222 252 227
3 222 227 198
3 198 227 206
3 198 206 175
3 252 260 227
3 227 260 240
3 227 240 206
3 260 272 240
3 326 308 304
3 304 308 282
3 304 282 268
3 268 282 252
3 268 252 236
3 308 290 282
3 282 290 260
3 282 260 252
3 290 272 260
3 279 264 249
3 249 264 232
3 249 232 217
3 217 232 194
3 217 194 169
3 264 256 232
3 232 256 220
3 232 220 194
3 256 236 220
3 236 222 196
3 196 222 173
3 196 173 160
3 160 173 138
3 160 138 124
3 222 198 173
3 173 198 162
3 173 162 138
3 198 175 162
3 169 158 143
3 143 158 128
3 143 128 111
3 111 128 96
3 111 96 81
3 158 136 128
3 128 136 104
3 128 104 96
3 136 124 104
3 236 196 220
3 220 196 171
3 220 171 194
3 194 171 158
3 194 158 169
3 196 160 171
3 171 160 136
3 171 136 158
3 160 124 136
3 279 249 263
3 263 249 231
3 263 231 255
3 255 231 219
3 255 219 235
3 249 217 231
3 231 217 193
3 231 193 219
3 217 169 193
3 169 143 157
3 157 143 127
3 157 127 135
3 135 127 103
3 135 103 123
3 143 111 127
3 127 111 95
3 127 95 103
3 111 81 95
3 235 195 221
3 221 195 172
3 221 172 197
3 197 172 161
3 197 161 174
3 195 159 172
3 172 159 137
3 172 137 161
3 159 123 137
3 169 157 193
3 193 157 170
3 193 170 219
3 219 170 195
3 219 195 235
3 157 135 170
3 170 135 159
3 170 159 195
3 135 123 159
3 279 263 299
3 299 263 286
3 299 286 311
3 311 286 303
3 311 303 325
3 263 255 286
3 286 255 267
3 286 267 303
3 255 235 267
3 235 221 251
3 251 221 228
3 251 228 259
3 259 228 239
3 259 239 271
3 221 197 228
3 228 197 205
3 228 205 239
3 197 174 205
3 325 307 333
3 333 307 317
3 333 317 337
3 337 317 321
3 337 321 341
3 307 289 317
3 317 289 293
3 317 293 321
3 289 271 293
3 235 251 267
3 267 251 281
3 267 281 303
3 303 281 307
3 303 307 325
3 251 259 281
3 281 259 289
3 281 289 307
3 259 271 289
3 279 299 300
3 300 299 312
3 300 312 313
3 313 312 330
3 313 330 326
3 299 311 312
3 312 311 329
3 312 329 330
3 311 325 329
3 325 333 343
3 343 333 349
3 343 349 355
3 355 349 359
3 355 359 361
3 333 337 349
3 349 337 353
3 349 353 359
3 337 341 353
3 326 345 334
3 334 345 350
3 334 350 338
3 338 350 354
3 338 354 342
3 345 356 350
3 350 356 360
3 350 360 354
3 356 361 360
3 325 343 329
3 329 343 344
3 329 344 330
3 330 344 345
3 330 345 326
3 343 355 344
3 344 355 356
3 344 356 345
3 355 361 356
3 175 206 177
3 177 206 208
3 177 208 179
3 179 208 210
3 179 210 181
3 206 240 208
3 208 240 242
3 208 242 210
3 240 272 242
3 272 294 274
3 274 294 296
3 274 296 276
3 276 296 298
3 276 298 278
3 294 322 296
3 296 322 324
3 296 324 298
3 322 342 324
3 181 212 183
3 183 212 214
3 183 214 185
3 185 214 216
3 185 216 187
3 212 246 214
3 214 246 248
3 214 248 216
3 246 278 248
3 272 274 242
3 242 274 244
3 242 244 210
3 210 244 212
3 210 212 181
3 274 276 244
3 244 276 246
3 244 246 212
3 276 278 246
3 81 96 60
3 60 96 74
3 60 74 47
3 47 74 56
3 47 56 34
3 96 104 74
3 74 104 92
3 74 92 56
3 104 124 92
3 124 138 108
3 108 138 132
3 108 132 100
3 100 132 114
3 100 114 84
3 138 162 132
3 132 162 146
3 132 146 114
3 162 175 146
3 34 52 26
3 26 52 42
3 26 42 22
3 22 42 38
3 22 38 20
3 52 70 42
3 42 70 64
3 42 64 38
3 70 84 64
3 124 108 92
3 92 108 78
3 92 78 56
3 56 78 52
3 56 52 34
3 108 100 78
3 78 100 70
3 78 70 52
3 100 84 70
3 174 161 145
3 145 161 131
3 145 131 113
3 113 131 99
3 113 99 83
3 161 137 131
3 131 137 107
3 131 107 99
3 137 123 107
3 123 103 91
3 91 103 73
3 91 73 55
3 55 73 45
3 55 45 33
3 103 95 73
3 73 95 59
3 73 59 45
3 95 81 59
3 83 69 63
3 63 69 41
3 63 41 37
3 37 41 21
3 37 21 19
3 69 51 41
3 41 51 25
3 41 25 21
3 51 33 25
3 123 91 107
3 107 91 77
3 107 77 99
3 99 77 69
3 99 69 83
3 91 55 77
3 77 55 51
3 77 51 69
3 55 33 51
3 341 321 323
3 323 321 295
3 323 295 297
3 297 295 275
3 297 275 277
3 321 293 295
3 295 293 273
3 295 273 275
3 293 271 273
3 271 239 241
3 241 239 207
3 241 207 209
3 209 207 178
3 209 178 180
3 239 205 207
3 207 205 176
3 207 176 178
3 205 174 176
3 277 245 247
3 247 245 213
3 247 213 215
3 215 213 184
3 215 184 186
3 245 211 213
3 213 211 182
3 213 182 184
3 211 180 182
3 271 241 273
3 273 241 243
3 273 243 275
3 275 243 245
3 275 245 277
3 241 209 243
3 243 209 211
3 243 211 245
3 209 180 211
3 342 354 340
3 340 354 352
3 340 352 336
3 336 352 348
3 336 348 328
3 354 360 352
3 352 360 358
3 352 358 348
3 360 361 358
3 361 359 357
3 357 359 351
3 357 351 346
3 346 351 335
3 346 335 327
3 359 353 351
3 351 353 339
3 351 339 335
3 353 341 339
3 328 332 316
3 316 332 315
3 316 315 302
3 302 315 301
3 302 301 280
3 332 331 315
3 315 331 314
3 315 314 301
3 331 327 314
3 361 357 358
3 358 357 347
3 358 347 348
3 348 347 332
3 348 332 328
3 357 346 347
3 347 346 331
3 347 331 332
3 346 327 331
