ply
format ascii 1.0
element vertex 642
property float x
property float y
property float z
element face 1280
property list int int vertex_index
end_header
-5.038920 0.000000 0.000000
-4.992401 0.000000 -0.683183
-4.992401 0.000000 0.683183
-4.976129 -0.708952 -0.357553
-4.976129 -0.708952 0.357553
-4.976129 0.708952 -0.357553
-4.976129 0.708952 0.357553
-4.852437 0.000000 -1.358289
-4.852437 0.000000 1.358289
-4.874070 -0.703694 -1.067971
-4.874070 -0.703694 1.067971
-4.874070 0.703694 -1.067971
-4.874070 0.703694 1.067971
-4.791663 -1.372399 -0.740822
-4.847007 -1.377991 0.000000
-4.791663 -1.372399 0.740822
-4.791663 1.372399 -0.740822
-4.847007 1.377991 -0.000000
-4.791663 1.372399 0.740822
-4.669034 -0.693157 -1.764069
-4.669034 -0.693157 1.764069
-4.669034 0.693157 -1.764069
-4.669034 0.693157 1.764069
-4.625074 -1.355575 -1.470855
-4.625074 -1.355575 1.470855
-4.625074 1.355575 -1.470855
-4.625074 1.355575 1.470855
-4.617807 -0.000000 -2.016787
-4.617807 0.000000 2.016787
-4.610307 -1.997681 -0.382989
-4.610307 -1.997681 0.382989
-4.610307 1.997681 -0.382989
-4.610307 1.997681 0.382989
-4.490739 -1.979720 -1.142930
-4.490739 -1.979720 1.142930
-4.490739 1.979720 -1.142930
-4.490739 1.979720 1.142930
-4.345438 -1.327340 -2.178630
-4.345438 -1.327340 2.178630
-4.345438 1.327340 -2.178630
-4.345438 1.327340 2.178630
-4.359106 -0.677288 -2.435374
-4.359106 -0.677288 2.435374
-4.359106 0.677288 -2.435374
-4.359106 0.677288 2.435374
-4.333810 -2.571075 -0.000000
-4.284948 -0.000000 -2.648244
-4.284948 -0.000000 2.648244
-4.333810 2.571075 0.000000
-4.250052 -1.943494 -1.884328
-4.250052 -1.943494 1.884328
-4.250052 1.943494 -1.884328
-4.250052 1.943494 1.884328
-4.269759 -2.558252 -0.785378
-4.269759 -2.558252 0.785378
-4.269759 2.558252 -0.785378
-4.269759 2.558252 0.785378
-4.076572 -2.519460 -1.557112
-4.076572 -2.519460 1.557112
-4.076572 2.519460 -1.557112
-4.076572 2.519460 1.557112
-3.975876 -1.121552 -2.885621
-3.975876 -1.121552 2.885621
-3.975876 1.121552 -2.885621
-3.975876 1.121552 2.885621
-3.940519 -0.418587 -3.112663
-3.940519 -0.418587 3.112663
-3.940519 0.418587 -3.112663
-3.940519 0.418587 3.112663
-3.921379 -1.790482 -2.609457
-3.921379 -1.790482 2.609457
-3.921379 1.790482 -2.609457
-3.921379 1.790482 2.609457
-3.965031 -3.083588 -0.402884
-3.965031 -3.083588 0.402884
-3.965031 3.083588 -0.402884
-3.965031 3.083588 0.402884
-3.827822 -3.048907 -1.201145
-3.827822 -3.048907 1.201145
-3.827822 3.048907 -1.201145
-3.827822 3.048907 1.201145
-3.781786 -2.417877 -2.290039
-3.781786 -2.417877 2.290039
-3.781786 2.417877 -2.290039
-3.781786 2.417877 2.290039
-3.525097 -0.820341 -3.505970
-3.525097 -0.820341 3.505970
-3.547482 -0.000000 -3.578779
-3.547482 0.000000 3.578779
-3.525097 0.820341 -3.505970
-3.525097 0.820341 3.505970
-3.560807 -2.996409 -1.932487
-3.560807 -2.996409 1.932487
-3.560807 2.996409 -1.932487
-3.560807 2.996409 1.932487
-3.518495 -1.541486 -3.261337
-3.518495 -1.541486 3.261337
-3.518495 1.541486 -3.261337
-3.518495 1.541486 3.261337
-3.505970 -3.525097 -0.820341
-3.578779 -3.547482 0.000000
-3.505970 -3.525097 0.820341
-3.505970 3.525097 -0.820341
-3.578779 3.547482 -0.000000
-3.505970 3.525097 0.820341
-3.419264 -2.220588 -2.961410
-3.419264 -2.220588 2.961410
-3.419264 2.220588 -2.961410
-3.419264 2.220588 2.961410
-3.261337 -3.518495 -1.541486
-3.261337 -3.518495 1.541486
-3.261337 3.518495 -1.541486
-3.261337 3.518495 1.541486
-3.232315 -2.849326 -2.612626
-3.232315 -2.849326 2.612626
-3.232315 2.849326 -2.612626
-3.232315 2.849326 2.612626
-3.083588 -0.402884 -3.965031
-3.083588 -0.402884 3.965031
-3.083588 0.402884 -3.965031
-3.083588 0.402884 3.965031
-3.112663 -3.940519 -0.418587
-3.112663 -3.940519 0.418587
-3.112663 3.940519 -0.418587
-3.112663 3.940519 0.418587
-3.048907 -1.201145 -3.827822
-3.048907 -1.201145 3.827822
-3.048907 1.201145 -3.827822
-3.048907 1.201145 3.827822
-2.996409 -1.932487 -3.560807
-2.996409 -1.932487 3.560807
-2.996409 1.932487 -3.560807
-2.996409 1.932487 3.560807
-2.961410 -3.419264 -2.220588
-2.961410 -3.419264 2.220588
-2.961410 3.419264 -2.220588
-2.961410 3.419264 2.220588
-2.885621 -3.975876 -1.121552
-2.885621 -3.975876 1.121552
-2.885621 3.975876 -1.121552
-2.885621 3.975876 1.121552
-2.849326 -2.612626 -3.232315
-2.849326 -2.612626 3.232315
-2.849326 2.612626 -3.232315
-2.849326 2.612626 3.232315
-2.648244 -4.284948 0.000000
-2.571075 -0.000000 -4.333810
-2.571075 0.000000 4.333810
-2.648244 4.284948 0.000000
-2.558252 -0.785378 -4.269759
-2.558252 -0.785378 4.269759
-2.558252 0.785378 -4.269759
-2.558252 0.785378 4.269759
-2.609457 -3.921379 -1.790482
-2.609457 -3.921379 1.790482
-2.609457 3.921379 -1.790482
-2.609457 3.921379 1.790482
-2.612626 -3.232315 -2.849326
-2.612626 -3.232315 2.849326
-2.612626 3.232315 -2.849326
-2.612626 3.232315 2.849326
-2.519460 -1.557112 -4.076572
-2.519460 -1.557112 4.076572
-2.519460 1.557112 -4.076572
-2.519460 1.557112 4.076572
-2.435374 -4.359106 -0.677288
-2.435374 -4.359106 0.677288
-2.435374 4.359106 -0.677288
-2.435374 4.359106 0.677288
-2.417877 -2.290039 -3.781786
-2.417877 -2.290039 3.781786
-2.417877 2.290039 -3.781786
-2.417877 2.290039 3.781786
-2.290039 -3.781786 -2.417877
-2.290039 -3.781786 2.417877
-2.290039 3.781786 -2.417877
-2.290039 3.781786 2.417877
-2.178630 -4.345438 -1.327340
-2.178630 -4.345438 1.327340
-2.178630 4.345438 -1.327340
-2.178630 4.345438 1.327340
-2.220588 -2.961410 -3.419264
-2.220588 -2.961410 3.419264
-2.220588 2.961410 -3.419264
-2.220588 2.961410 3.419264
-2.016787 -4.617807 0.000000
-2.016787 4.617807 0.000000
-1.997681 -0.382989 -4.610307
-1.997681 -0.382989 4.610307
-1.997681 0.382989 -4.610307
-1.997681 0.382989 4.610307
-1.979720 -1.142930 -4.490739
-1.979720 -1.142930 4.490739
-1.979720 1.142930 -4.490739
-1.979720 1.142930 4.490739
-1.943494 -1.884328 -4.250052
-1.943494 -1.884328 4.250052
-1.943494 1.884328 -4.250052
-1.943494 1.884328 4.250052
-1.884328 -4.250052 -1.943494
-1.884328 -4.250052 1.943494
-1.884328 4.250052 -1.943494
-1.884328 4.250052 1.943494
-1.932487 -3.560807 -2.996409
-1.932487 -3.560807 2.996409
-1.932487 3.560807 -2.996409
-1.932487 3.560807 2.996409
-1.764069 -4.669034 -0.693157
-1.764069 -4.669034 0.693157
-1.764069 4.669034 -0.693157
-1.764069 4.669034 0.693157
-1.790482 -2.609457 -3.921379
-1.790482 -2.609457 3.921379
-1.790482 2.609457 -3.921379
-1.790482 2.609457 3.921379
-1.557112 -4.076572 -2.519460
-1.557112 -4.076572 2.519460
-1.557112 4.076572 -2.519460
-1.557112 4.076572 2.519460
-1.470855 -4.625074 -1.355575
-1.470855 -4.625074 1.355575
-1.470855 4.625074 -1.355575
-1.470855 4.625074 1.355575
-1.541486 -3.261337 -3.518495
-1.541486 -3.261337 3.518495
-1.541486 3.261337 -3.518495
-1.541486 3.261337 3.518495
-1.358289 -4.852437 0.000000
-1.358289 4.852437 0.000000
-1.372399 -0.740822 -4.791663
-1.372399 -0.740822 4.791663
-1.377991 -0.000000 -4.847007
-1.377991 -0.000000 4.847007
-1.372399 0.740822 -4.791663
-1.372399 0.740822 4.791663
-1.355575 -1.470855 -4.625074
-1.355575 -1.470855 4.625074
-1.355575 1.470855 -4.625074
-1.355575 1.470855 4.625074
-1.327340 -2.178630 -4.345438
-1.327340 -2.178630 4.345438
-1.327340 2.178630 -4.345438
-1.327340 2.178630 4.345438
-1.142930 -4.490739 -1.979720
-1.142930 -4.490739 1.979720
-1.142930 4.490739 -1.979720
-1.142930 4.490739 1.979720
-1.201145 -3.827822 -3.048907
-1.201145 -3.827822 3.048907
-1.201145 3.827822 -3.048907
-1.201145 3.827822 3.048907
-1.067971 -4.874070 -0.703694
-1.067971 -4.874070 0.703694
-1.067971 4.874070 -0.703694
-1.067971 4.874070 0.703694
-1.121552 -2.885621 -3.975876
-1.121552 -2.885621 3.975876
-1.121552 2.885621 -3.975876
-1.121552 2.885621 3.975876
-0.740822 -4.791663 -1.372399
-0.740822 -4.791663 1.372399
-0.740822 4.791663 -1.372399
-0.740822 4.791663 1.372399
-0.820341 -3.505970 -3.525097
-0.820341 -3.505970 3.525097
-0.820341 3.505970 -3.525097
-0.820341 3.505970 3.525097
-0.785378 -4.269759 -2.558252
-0.785378 -4.269759 2.558252
-0.785378 4.269759 -2.558252
-0.785378 4.269759 2.558252
-0.683183 -4.992401 0.000000
-0.683183 4.992401 0.000000
-0.703694 -1.067971 -4.874070
-0.703694 -1.067971 4.874070
-0.708952 -0.357553 -4.976129
-0.708952 -0.357553 4.976129
-0.708952 0.357553 -4.976129
-0.708952 0.357553 4.976129
-0.703694 1.067971 -4.874070
-0.703694 1.067971 4.874070
-0.677288 -2.435374 -4.359106
-0.677288 -2.435374 4.359106
-0.693157 -1.764069 -4.669034
-0.693157 -1.764069 4.669034
-0.693157 1.764069 -4.669034
-0.693157 1.764069 4.669034
-0.677288 2.435374 -4.359106
-0.677288 2.435374 4.359106
-0.357553 -4.976129 -0.708952
-0.357553 -4.976129 0.708952
-0.382989 -4.610307 -1.997681
-0.382989 -4.610307 1.997681
-0.382989 4.610307 -1.997681
-0.382989 4.610307 1.997681
-0.357553 4.976129 -0.708952
-0.357553 4.976129 0.708952
-0.402884 -3.965031 -3.083588
-0.402884 -3.965031 3.083588
-0.418587 -3.112663 -3.940519
-0.418587 -3.112663 3.940519
-0.418587 3.112663 -3.940519
-0.418587 3.112663 3.940519
-0.402884 3.965031 -3.083588
-0.402884 3.965031 3.083588
0.000000 -5.038920 0.000000
0.000000 -4.847007 -1.377991
0.000000 -4.847007 1.377991
-0.000000 -4.333810 -2.571075
-0.000000 -4.333810 2.571075
0.000000 -3.578779 -3.547482
0.000000 -3.578779 3.547482
-0.000000 -2.648244 -4.284948
-0.000000 -2.648244 4.284948
-0.000000 -2.016787 -4.617807
0.000000 -2.016787 4.617807
0.000000 -1.358289 -4.852437
0.000000 -1.358289 4.852437
-0.000000 -0.683183 -4.992401
0.000000 -0.683183 4.992401
-0.000000 0.000000 -5.038920
0.000000 0.000000 5.038920
-0.000000 0.683183 -4.992401
0.000000 0.683183 4.992401
0.000000 1.358289 -4.852437
-0.000000 1.358289 4.852437
-0.000000 2.016787 -4.617807
-0.000000 2.016787 4.617807
-0.000000 2.648244 -4.284948
0.000000 2.648244 4.284948
0.000000 3.578779 -3.547482
0.000000 3.578779 3.547482
0.000000 4.333810 -2.571075
0.000000 4.333810 2.571075
0.000000 4.847007 -1.377991
0.000000 4.847007 1.377991
0.000000 5.038920 0.000000
0.402884 -3.965031 -3.083588
0.402884 -3.965031 3.083588
0.418587 -3.112663 -3.940519
0.418587 -3.112663 3.940519
0.418587 3.112663 -3.940519
0.418587 3.112663 3.940519
0.402884 3.965031 -3.083588
0.402884 3.965031 3.083588
0.357553 -4.976129 -0.708952
0.357553 -4.976129 0.708952
0.382989 -4.610307 -1.997681
0.382989 -4.610307 1.997681
0.382989 4.610307 -1.997681
0.382989 4.610307 1.997681
0.357553 4.976129 -0.708952
0.357553 4.976129 0.708952
0.677288 -2.435374 -4.359106
0.677288 -2.435374 4.359106
0.693157 -1.764069 -4.669034
0.693157 -1.764069 4.669034
0.693157 1.764069 -4.669034
0.693157 1.764069 4.669034
0.677288 2.435374 -4.359106
0.677288 2.435374 4.359106
0.703694 -1.067971 -4.874070
0.703694 -1.067971 4.874070
0.708952 -0.357553 -4.976129
0.708952 -0.357553 4.976129
0.708952 0.357553 -4.976129
0.708952 0.357553 4.976129
0.703694 1.067971 -4.874070
0.703694 1.067971 4.874070
0.683183 -4.992401 0.000000
0.683183 4.992401 0.000000
0.785378 -4.269759 -2.558252
0.785378 -4.269759 2.558252
0.785378 4.269759 -2.558252
0.785378 4.269759 2.558252
0.820341 -3.505970 -3.525097
0.820341 -3.505970 3.525097
0.820341 3.505970 -3.525097
0.820341 3.505970 3.525097
0.740822 -4.791663 -1.372399
0.740822 -4.791663 1.372399
0.740822 4.791663 -1.372399
0.740822 4.791663 1.372399
1.121552 -2.885621 -3.975876
1.121552 -2.885621 3.975876
1.121552 2.885621 -3.975876
1.121552 2.885621 3.975876
1.067971 -4.874070 -0.703694
1.067971 -4.874070 0.703694
1.067971 4.874070 -0.703694
1.067971 4.874070 0.703694
1.201145 -3.827822 -3.048907
1.201145 -3.827822 3.048907
1.201145 3.827822 -3.048907
1.201145 3.827822 3.048907
1.142930 -4.490739 -1.979720
1.142930 -4.490739 1.979720
1.142930 4.490739 -1.979720
1.142930 4.490739 1.979720
1.327340 -2.178630 -4.345438
1.327340 -2.178630 4.345438
1.327340 2.178630 -4.345438
1.327340 2.178630 4.345438
1.355575 -1.470855 -4.625074
1.355575 -1.470855 4.625074
1.355575 1.470855 -4.625074
1.355575 1.470855 4.625074
1.372399 -0.740822 -4.791663
1.372399 -0.740822 4.791663
1.377991 -0.000000 -4.847007
1.377991 -0.000000 4.847007
1.372399 0.740822 -4.791663
1.372399 0.740822 4.791663
1.358289 -4.852437 0.000000
1.358289 4.852437 0.000000
1.541486 -3.261337 -3.518495
1.541486 -3.261337 3.518495
1.541486 3.261337 -3.518495
1.541486 3.261337 3.518495
1.470855 -4.625074 -1.355575
1.470855 -4.625074 1.355575
1.470855 4.625074 -1.355575
1.470855 4.625074 1.355575
1.557112 -4.076572 -2.519460
1.557112 -4.076572 2.519460
1.557112 4.076572 -2.519460
1.557112 4.076572 2.519460
1.790482 -2.609457 -3.921379
1.790482 -2.609457 3.921379
1.790482 2.609457 -3.921379
1.790482 2.609457 3.921379
1.764069 -4.669034 -0.693157
1.764069 -4.669034 0.693157
1.764069 4.669034 -0.693157
1.764069 4.669034 0.693157
1.932487 -3.560807 -2.996409
1.932487 -3.560807 2.996409
1.932487 3.560807 -2.996409
1.932487 3.560807 2.996409
1.884328 -4.250052 -1.943494
1.884328 -4.250052 1.943494
1.884328 4.250052 -1.943494
1.884328 4.250052 1.943494
1.943494 -1.884328 -4.250052
1.943494 -1.884328 4.250052
1.943494 1.884328 -4.250052
1.943494 1.884328 4.250052
1.979720 -1.142930 -4.490739
1.979720 -1.142930 4.490739
1.979720 1.142930 -4.490739
1.979720 1.142930 4.490739
1.997681 -0.382989 -4.610307
1.997681 -0.382989 4.610307
1.997681 0.382989 -4.610307
1.997681 0.382989 4.610307
2.016787 -4.617807 0.000000
2.016787 4.617807 0.000000
2.220588 -2.961410 -3.419264
2.220588 -2.961410 3.419264
2.220588 2.961410 -3.419264
2.220588 2.961410 3.419264
2.178630 -4.345438 -1.327340
2.178630 -4.345438 1.327340
2.178630 4.345438 -1.327340
2.178630 4.345438 1.327340
2.290039 -3.781786 -2.417877
2.290039 -3.781786 2.417877
2.290039 3.781786 -2.417877
2.290039 3.781786 2.417877
2.417877 -2.290039 -3.781786
2.417877 -2.290039 3.781786
2.417877 2.290039 -3.781786
2.417877 2.290039 3.781786
2.435374 -4.359106 -0.677288
2.435374 -4.359106 0.677288
2.435374 4.359106 -0.677288
2.435374 4.359106 0.677288
2.519460 -1.557112 -4.076572
2.519460 -1.557112 4.076572
2.519460 1.557112 -4.076572
2.519460 1.557112 4.076572
2.612626 -3.232315 -2.849326
2.612626 -3.232315 2.849326
2.612626 3.232315 -2.849326
2.612626 3.232315 2.849326
2.609457 -3.921379 -1.790482
2.609457 -3.921379 1.790482
2.609457 3.921379 -1.790482
2.609457 3.921379 1.790482
2.558252 -0.785378 -4.269759
2.558252 -0.785378 4.269759
2.558252 0.785378 -4.269759
2.558252 0.785378 4.269759
2.648244 -4.284948 0.000000
2.571075 0.000000 -4.333810
2.571075 0.000000 4.333810
2.648244 4.284948 0.000000
2.849326 -2.612626 -3.232315
2.849326 -2.612626 3.232315
2.849326 2.612626 -3.232315
2.849326 2.612626 3.232315
2.885621 -3.975876 -1.121552
2.885621 -3.975876 1.121552
2.885621 3.975876 -1.121552
2.885621 3.975876 1.121552
2.961410 -3.419264 -2.220588
2.961410 -3.419264 2.220588
2.961410 3.419264 -2.220588
2.961410 3.419264 2.220588
2.996409 -1.932487 -3.560807
2.996409 -1.932487 3.560807
2.996409 1.932487 -3.560807
2.996409 1.932487 3.560807
3.048907 -1.201145 -3.827822
3.048907 -1.201145 3.827822
3.048907 1.201145 -3.827822
3.048907 1.201145 3.827822
3.112663 -3.940519 -0.418587
3.112663 -3.940519 0.418587
3.112663 3.940519 -0.418587
3.112663 3.940519 0.418587
3.083588 -0.402884 -3.965031
3.083588 -0.402884 3.965031
3.083588 0.402884 -3.965031
3.083588 0.402884 3.965031
3.232315 -2.849326 -2.612626
3.232315 -2.849326 2.612626
3.232315 2.849326 -2.612626
3.232315 2.849326 2.612626
3.261337 -3.518495 -1.541486
3.261337 -3.518495 1.541486
3.261337 3.518495 -1.541486
3.261337 3.518495 1.541486
3.419264 -2.220588 -2.961410
3.419264 -2.220588 2.961410
3.419264 2.220588 -2.961410
3.419264 2.220588 2.961410
3.505970 -3.525097 -0.820341
3.578779 -3.547482 0.000000
3.505970 -3.525097 0.820341
3.505970 3.525097 -0.820341
3.578779 3.547482 0.000000
3.505970 3.525097 0.820341
3.518495 -1.541486 -3.261337
3.518495 -1.541486 3.261337
3.518495 1.541486 -3.261337
3.518495 1.541486 3.261337
3.560807 -2.996409 -1.932487
3.560807 -2.996409 1.932487
3.560807 2.996409 -1.932487
3.560807 2.996409 1.932487
3.525097 -0.820341 -3.505970
3.525097 -0.820341 3.505970
3.547482 0.000000 -3.578779
3.547482 0.000000 3.578779
3.525097 0.820341 -3.505970
3.525097 0.820341 3.505970
3.781786 -2.417877 -2.290039
3.781786 -2.417877 2.290039
3.781786 2.417877 -2.290039
3.781786 2.417877 2.290039
3.827822 -3.048907 -1.201145
3.827822 -3.048907 1.201145
3.827822 3.048907 -1.201145
3.827822 3.048907 1.201145
3.965031 -3.083588 -0.402884
3.965031 -3.083588 0.402884
3.965031 3.083588 -0.402884
3.965031 3.083588 0.402884
3.921379 -1.790482 -2.609457
3.921379 -1.790482 2.609457
3.921379 1.790482 -2.609457
3.921379 1.790482 2.609457
3.940519 -0.418587 -3.112663
3.940519 -0.418587 3.112663
3.940519 0.418587 -3.112663
3.940519 0.418587 3.112663
3.975876 -1.121552 -2.885621
3.975876 -1.121552 2.885621
3.975876 1.121552 -2.885621
3.975876 1.121552 2.885621
4.076572 -2.519460 -1.557112
4.076572 -2.519460 1.557112
4.076572 2.519460 -1.557112
4.076572 2.519460 1.557112
4.269759 -2.558252 -0.785378
4.269759 -2.558252 0.785378
4.269759 2.558252 -0.785378
4.269759 2.558252 0.785378
4.250052 -1.943494 -1.884328
4.250052 -1.943494 1.884328
4.250052 1.943494 -1.884328
4.250052 1.943494 1.884328
4.333810 -2.571075 0.000000
4.284948 0.000000 -2.648244
4.284948 -0.000000 2.648244
4.333810 2.571075 0.000000
4.359106 -0.677288 -2.435374
4.359106 -0.677288 2.435374
4.359106 0.677288 -2.435374
4.359106 0.677288 2.435374
4.345438 -1.327340 -2.178630
4.345438 -1.327340 2.178630
4.345438 1.327340 -2.178630
4.345438 1.327340 2.178630
4.490739 -1.979720 -1.142930
4.490739 -1.979720 1.142930
4.490739 1.979720 -1.142930
4.490739 1.979720 1.142930
4.610307 -1.997681 -0.382989
4.610307 -1.997681 0.382989
4.610307 1.997681 -0.382989
4.610307 1.997681 0.382989
4.617807 0.000000 -2.016787
4.617807 -0.000000 2.016787
4.625074 -1.355575 -1.470855
4.625074 -1.355575 1.470855
4.625074 1.355575 -1.470855
4.625074 1.355575 1.470855
4.669034 -0.693157 -1.764069
4.669034 -0.693157 1.764069
4.669034 0.693157 -1.764069
4.669034 0.693157 1.764069
4.791663 -1.372399 -0.740822
4.847007 -1.377991 0.000000
4.791663 -1.372399 0.740822
4.791663 1.372399 -0.740822
4.847007 1.377991 0.000000
4.791663 1.372399 0.740822
4.874070 -0.703694 -1.067971
4.874070 -0.703694 1.067971
4.874070 0.703694 -1.067971
4.874070 0.703694 1.067971
4.852437 -0.000000 -1.358289
4.852437 0.000000 1.358289
4.976129 -0.708952 -0.357553
4.976129 -0.708952 0.357553
4.976129 0.708952 -0.357553
4.976129 0.708952 0.357553
4.992401 0.000000 -0.683183
4.992401 -0.000000 0.683183
5.038920 -0.000000 0.000000
3 148 124 168
3 124 104 140
3 168 140 180
3 124 140 168
3 104 80 112
3 80 60 94
3 112 94 136
3 80 94 112
3 180 156 202
3 156 136 176
3 202 176 218
3 156 176 202
3 104 112 140
3 112 136 156
3 140 156 180
3 112 156 140
3 60 52 84
3 52 40 72
3 84 72 108
3 52 72 84
3 40 44 64
3 44 47 68
3 64 68 90
3 44 68 64
3 108 98 132
3 98 90 128
3 132 128 164
3 98 128 132
3 40 64 72
3 64 90 98
3 72 98 108
3 64 98 72
3 218 206 250
3 206 184 226
3 250 226 266
3 206 226 250
3 184 172 214
3 172 164 198
3 214 198 242
3 172 198 214
3 266 258 302
3 258 242 288
3 302 288 329
3 258 288 302
3 184 214 226
3 214 242 258
3 226 258 266
3 214 258 226
3 60 84 94
3 84 108 116
3 94 116 136
3 84 116 94
3 108 132 144
3 132 164 172
3 144 172 184
3 132 172 144
3 136 160 176
3 160 184 206
3 176 206 218
3 160 206 176
3 108 144 116
3 144 184 160
3 116 160 136
3 144 160 116
3 148 168 186
3 168 180 210
3 186 210 228
3 168 210 186
3 180 202 222
3 202 218 246
3 222 246 262
3 202 246 222
3 228 254 272
3 254 262 296
3 272 296 336
3 254 296 272
3 180 222 210
3 222 262 254
3 210 254 228
3 222 254 210
3 218 250 270
3 250 266 304
3 270 304 333
3 250 304 270
3 266 302 331
3 302 329 342
3 331 342 378
3 302 342 331
3 333 344 374
3 344 378 394
3 374 394 426
3 344 394 374
3 266 331 304
3 331 378 344
3 304 344 333
3 331 344 304
3 336 352 370
3 352 382 390
3 370 390 414
3 352 390 370
3 382 398 422
3 398 426 442
3 422 442 464
3 398 442 422
3 414 434 456
3 434 464 476
3 456 476 496
3 434 476 456
3 382 422 390
3 422 464 434
3 390 434 414
3 422 434 390
3 218 270 246
3 270 333 294
3 246 294 262
3 270 294 246
3 333 374 350
3 374 426 398
3 350 398 382
3 374 398 350
3 262 335 296
3 335 382 352
3 296 352 336
3 335 352 296
3 333 350 294
3 350 382 335
3 294 335 262
3 350 335 294
3 148 186 167
3 186 228 209
3 167 209 179
3 186 209 167
3 228 272 253
3 272 336 295
3 253 295 261
3 272 295 253
3 179 221 201
3 221 261 245
3 201 245 217
3 221 245 201
3 228 253 209
3 253 261 221
3 209 221 179
3 253 221 209
3 336 370 351
3 370 414 389
3 351 389 381
3 370 389 351
3 414 456 433
3 456 496 475
3 433 475 463
3 456 475 433
3 381 421 397
3 421 463 441
3 397 441 425
3 421 441 397
3 414 433 389
3 433 463 421
3 389 421 381
3 433 421 389
3 217 269 249
3 269 332 303
3 249 303 265
3 269 303 249
3 332 373 343
3 373 425 393
3 343 393 377
3 373 393 343
3 265 330 301
3 330 377 341
3 301 341 328
3 330 341 301
3 332 343 303
3 343 377 330
3 303 330 265
3 343 330 303
3 336 351 295
3 351 381 334
3 295 334 261
3 351 334 295
3 381 397 349
3 397 425 373
3 349 373 332
3 397 373 349
3 261 293 245
3 293 332 269
3 245 269 217
3 293 269 245
3 381 349 334
3 349 332 293
3 334 293 261
3 349 293 334
3 148 167 123
3 167 179 139
3 123 139 102
3 167 139 123
3 179 201 155
3 201 217 175
3 155 175 135
3 201 175 155
3 102 111 79
3 111 135 93
3 79 93 59
3 111 93 79
3 179 155 139
3 155 135 111
3 139 111 102
3 155 111 139
3 217 249 205
3 249 265 225
3 205 225 183
3 249 225 205
3 265 301 257
3 301 328 287
3 257 287 241
3 301 287 257
3 183 213 171
3 213 241 197
3 171 197 163
3 213 197 171
3 265 257 225
3 257 241 213
3 225 213 183
3 257 213 225
3 59 83 51
3 83 107 71
3 51 71 39
3 83 71 51
3 107 131 97
3 131 163 127
3 97 127 89
3 131 127 97
3 39 63 43
3 63 89 67
3 43 67 46
3 63 67 43
3 107 97 71
3 97 89 63
3 71 63 39
3 97 63 71
3 217 205 175
3 205 183 159
3 175 159 135
3 205 159 175
3 183 171 143
3 171 163 131
3 143 131 107
3 171 131 143
3 135 115 93
3 115 107 83
3 93 83 59
3 115 83 93
3 183 143 159
3 143 107 115
3 159 115 135
3 143 115 159
3 148 123 124
3 123 102 103
3 124 103 104
3 123 103 124
3 102 79 75
3 79 59 55
3 75 55 48
3 79 55 75
3 104 76 80
3 76 48 56
3 80 56 60
3 76 56 80
3 102 75 103
3 75 48 76
3 103 76 104
3 75 76 103
3 59 51 35
3 51 39 25
3 35 25 16
3 51 25 35
3 39 43 21
3 43 46 27
3 21 27 7
3 43 27 21
3 16 11 5
3 11 7 1
3 5 1 0
3 11 1 5
3 39 21 25
3 21 7 11
3 25 11 16
3 21 11 25
3 60 36 52
3 36 18 26
3 52 26 40
3 36 26 52
3 18 6 12
3 6 0 2
3 12 2 8
3 6 2 12
3 40 22 44
3 22 8 28
3 44 28 47
3 22 28 44
3 18 12 26
3 12 8 22
3 26 22 40
3 12 22 26
3 59 35 55
3 35 16 31
3 55 31 48
3 35 31 55
3 16 5 17
3 5 0 6
3 17 6 18
3 5 6 17
3 48 32 56
3 32 18 36
3 56 36 60
3 32 36 56
3 16 17 31
3 17 18 32
3 31 32 48
3 17 32 31
3 496 476 520
3 476 464 504
3 520 504 542
3 476 504 520
3 464 442 488
3 442 426 468
3 488 468 508
3 442 468 488
3 542 532 564
3 532 508 550
3 564 550 584
3 532 550 564
3 464 488 504
3 488 508 532
3 504 532 542
3 488 532 504
3 426 394 438
3 394 378 418
3 438 418 460
3 394 418 438
3 378 342 386
3 342 329 360
3 386 360 402
3 342 360 386
3 460 430 472
3 430 402 446
3 472 446 480
3 430 446 472
3 378 386 418
3 386 402 430
3 418 430 460
3 386 430 418
3 584 560 592
3 560 536 572
3 592 572 604
3 560 572 592
3 536 512 546
3 512 480 516
3 546 516 556
3 512 516 546
3 604 580 600
3 580 556 576
3 600 576 595
3 580 576 600
3 536 546 572
3 546 556 580
3 572 580 604
3 546 580 572
3 426 438 468
3 438 460 484
3 468 484 508
3 438 484 468
3 460 472 500
3 472 480 512
3 500 512 536
3 472 512 500
3 508 528 550
3 528 536 560
3 550 560 584
3 528 560 550
3 460 500 484
3 500 536 528
3 484 528 508
3 500 528 484
3 329 288 327
3 288 242 286
3 327 286 325
3 288 286 327
3 242 198 238
3 198 164 194
3 238 194 234
3 198 194 238
3 325 280 323
3 280 234 278
3 323 278 321
3 280 278 323
3 242 238 286
3 238 234 280
3 286 280 325
3 238 280 286
3 164 128 152
3 128 90 120
3 152 120 147
3 128 120 152
3 90 68 88
3 68 47 66
3 88 66 86
3 68 66 88
3 147 118 150
3 118 86 126
3 150 126 162
3 118 126 150
3 90 88 120
3 88 86 118
3 120 118 147
3 88 118 120
3 321 276 319
3 276 230 274
3 319 274 317
3 276 274 319
3 230 192 236
3 192 162 196
3 236 196 240
3 192 196 236
3 317 284 315
3 284 240 282
3 315 282 313
3 284 282 315
3 230 236 274
3 236 240 284
3 274 284 317
3 236 284 274
3 164 152 194
3 152 147 190
3 194 190 234
3 152 190 194
3 147 150 188
3 150 162 192
3 188 192 230
3 150 192 188
3 234 232 278
3 232 230 276
3 278 276 321
3 232 276 278
3 147 188 190
3 188 230 232
3 190 232 234
3 188 232 190
3 47 28 42
3 28 8 20
3 42 20 38
3 28 20 42
3 8 2 10
3 2 0 4
3 10 4 15
3 2 4 10
3 38 24 50
3 24 15 34
3 50 34 58
3 24 34 50
3 8 10 20
3 10 15 24
3 20 24 38
3 10 24 20
3 0 1 3
3 1 7 9
3 3 9 13
3 1 9 3
3 7 27 19
3 27 46 41
3 19 41 37
3 27 41 19
3 13 23 33
3 23 37 49
3 33 49 57
3 23 49 33
3 7 19 9
3 19 37 23
3 9 23 13
3 19 23 9
3 58 54 78
3 54 45 74
3 78 74 101
3 54 74 78
3 45 53 73
3 53 57 77
3 73 77 99
3 53 77 73
3 101 100 122
3 100 99 121
3 122 121 145
3 100 121 122
3 45 73 74
3 73 99 100
3 74 100 101
3 73 100 74
3 0 3 4
3 3 13 14
3 4 14 15
3 3 14 4
3 13 33 29
3 33 57 53
3 29 53 45
3 33 53 29
3 15 30 34
3 30 45 54
3 34 54 58
3 30 54 34
3 13 29 14
3 29 45 30
3 14 30 15
3 29 30 14
3 46 67 65
3 67 89 87
3 65 87 85
3 67 87 65
3 89 127 119
3 127 163 151
3 119 151 146
3 127 151 119
3 85 117 125
3 117 146 149
3 125 149 161
3 117 149 125
3 89 119 87
3 119 146 117
3 87 117 85
3 119 117 87
3 163 197 193
3 197 241 237
3 193 237 233
3 197 237 193
3 241 287 285
3 287 328 326
3 285 326 324
3 287 326 285
3 233 279 277
3 279 324 322
3 277 322 320
3 279 322 277
3 241 285 237
3 285 324 279
3 237 279 233
3 285 279 237
3 161 191 195
3 191 229 235
3 195 235 239
3 191 235 195
3 229 275 273
3 275 320 318
3 273 318 316
3 275 318 273
3 239 283 281
3 283 316 314
3 281 314 312
3 283 314 281
3 229 273 235
3 273 316 283
3 235 283 239
3 273 283 235
3 163 193 151
3 193 233 189
3 151 189 146
3 193 189 151
3 233 277 231
3 277 320 275
3 231 275 229
3 277 275 231
3 146 187 149
3 187 229 191
3 149 191 161
3 187 191 149
3 233 231 189
3 231 229 187
3 189 187 146
3 231 187 189
3 328 341 359
3 341 377 385
3 359 385 401
3 341 385 359
3 377 393 417
3 393 425 437
3 417 437 459
3 393 437 417
3 401 429 445
3 429 459 471
3 445 471 479
3 429 471 445
3 377 417 385
3 417 459 429
3 385 429 401
3 417 429 385
3 425 441 467
3 441 463 487
3 467 487 507
3 441 487 467
3 463 475 503
3 475 496 519
3 503 519 540
3 475 519 503
3 507 531 549
3 531 540 563
3 549 563 583
3 531 563 549
3 463 503 487
3 503 540 531
3 487 531 507
3 503 531 487
3 479 511 515
3 511 535 545
3 515 545 555
3 511 545 515
3 535 559 571
3 559 583 591
3 571 591 603
3 559 591 571
3 555 579 575
3 579 603 599
3 575 599 594
3 579 599 575
3 535 571 545
3 571 603 579
3 545 579 555
3 571 579 545
3 425 467 437
3 467 507 483
3 437 483 459
3 467 483 437
3 507 549 527
3 549 583 559
3 527 559 535
3 549 559 527
3 459 499 471
3 499 535 511
3 471 511 479
3 499 511 471
3 507 527 483
3 527 535 499
3 483 499 459
3 527 499 483
3 493 518 474
3 518 539 502
3 474 502 462
3 518 502 474
3 539 562 530
3 562 582 548
3 530 548 506
3 562 548 530
3 462 486 440
3 486 506 466
3 440 466 424
3 486 466 440
3 539 530 502
3 530 506 486
3 502 486 462
3 530 486 502
3 582 590 558
3 590 602 570
3 558 570 534
3 590 570 558
3 602 598 578
3 598 595 574
3 578 574 552
3 598 574 578
3 534 544 510
3 544 552 514
3 510 514 478
3 544 514 510
3 602 578 570
3 578 552 544
3 570 544 534
3 578 544 570
3 424 436 392
3 436 458 416
3 392 416 376
3 436 416 392
3 458 470 428
3 470 478 444
3 428 444 400
3 470 444 428
3 376 384 340
3 384 400 354
3 340 354 313
3 384 354 340
3 458 428 416
3 428 400 384
3 416 384 376
3 428 384 416
3 582 558 548
3 558 534 526
3 548 526 506
3 558 526 548
3 534 510 498
3 510 478 470
3 498 470 458
3 510 470 498
3 506 482 466
3 482 458 436
3 466 436 424
3 482 436 466
3 534 498 526
3 498 458 482
3 526 482 506
3 498 482 526
3 493 474 455
3 474 462 432
3 455 432 413
3 474 432 455
3 462 440 420
3 440 424 396
3 420 396 380
3 440 396 420
3 413 388 369
3 388 380 346
3 369 346 305
3 388 346 369
3 462 420 432
3 420 380 388
3 432 388 413
3 420 388 432
3 424 392 372
3 392 376 338
3 372 338 309
3 392 338 372
3 376 340 311
3 340 313 300
3 311 300 264
3 340 300 311
3 309 298 268
3 298 264 248
3 268 248 216
3 298 248 268
3 376 311 338
3 311 264 298
3 338 298 309
3 311 298 338
3 305 290 271
3 290 260 252
3 271 252 227
3 290 252 271
3 260 244 220
3 244 216 200
3 220 200 178
3 244 200 220
3 227 208 185
3 208 178 166
3 185 166 145
3 208 166 185
3 260 220 252
3 220 178 208
3 252 208 227
3 220 208 252
3 424 372 396
3 372 309 348
3 396 348 380
3 372 348 396
3 309 268 292
3 268 216 244
3 292 244 260
3 268 244 292
3 380 307 346
3 307 260 290
3 346 290 305
3 307 290 346
3 309 292 348
3 292 260 307
3 348 307 380
3 292 307 348
3 493 455 473
3 455 413 431
3 473 431 461
3 455 431 473
3 413 369 387
3 369 305 345
3 387 345 379
3 369 345 387
3 461 419 439
3 419 379 395
3 439 395 423
3 419 395 439
3 413 387 431
3 387 379 419
3 431 419 461
3 387 419 431
3 305 271 289
3 271 227 251
3 289 251 259
3 271 251 289
3 227 185 207
3 185 145 165
3 207 165 177
3 185 165 207
3 259 219 243
3 219 177 199
3 243 199 215
3 219 199 243
3 227 207 251
3 207 177 219
3 251 219 259
3 207 219 251
3 423 371 391
3 371 308 337
3 391 337 375
3 371 337 391
3 308 267 297
3 267 215 247
3 297 247 263
3 267 247 297
3 375 310 339
3 310 263 299
3 339 299 312
3 310 299 339
3 308 297 337
3 297 263 310
3 337 310 375
3 297 310 337
3 305 289 345
3 289 259 306
3 345 306 379
3 289 306 345
3 259 243 291
3 243 215 267
3 291 267 308
3 243 267 291
3 379 347 395
3 347 308 371
3 395 371 423
3 347 371 395
3 259 291 306
3 291 308 347
3 306 347 379
3 291 347 306
3 493 473 517
3 473 461 501
3 517 501 537
3 473 501 517
3 461 439 485
3 439 423 465
3 485 465 505
3 439 465 485
3 537 529 561
3 529 505 547
3 561 547 581
3 529 547 561
3 461 485 501
3 485 505 529
3 501 529 537
3 485 529 501
3 423 391 435
3 391 375 415
3 435 415 457
3 391 415 435
3 375 339 383
3 339 312 353
3 383 353 399
3 339 353 383
3 457 427 469
3 427 399 443
3 469 443 477
3 427 443 469
3 375 383 415
3 383 399 427
3 415 427 457
3 383 427 415
3 581 557 589
3 557 533 569
3 589 569 601
3 557 569 589
3 533 509 543
3 509 477 513
3 543 513 551
3 509 513 543
3 601 577 597
3 577 551 573
3 597 573 594
3 577 573 597
3 533 543 569
3 543 551 577
3 569 577 601
3 543 577 569
3 423 435 465
3 435 457 481
3 465 481 505
3 435 481 465
3 457 469 497
3 469 477 509
3 497 509 533
3 469 509 497
3 505 525 547
3 525 533 557
3 547 557 581
3 525 557 547
3 457 497 481
3 497 533 525
3 481 525 505
3 497 525 481
3 493 517 518
3 517 537 538
3 518 538 539
3 517 538 518
3 537 561 565
3 561 581 585
3 565 585 593
3 561 585 565
3 539 566 562
3 566 593 586
3 562 586 582
3 566 586 562
3 537 565 538
3 565 593 566
3 538 566 539
3 565 566 538
3 581 589 605
3 589 601 615
3 605 615 623
3 589 615 605
3 601 597 619
3 597 594 613
3 619 613 633
3 597 613 619
3 623 629 635
3 629 633 639
3 635 639 641
3 629 639 635
3 601 619 615
3 619 633 629
3 615 629 623
3 619 629 615
3 582 606 590
3 606 625 616
3 590 616 602
3 606 616 590
3 625 636 630
3 636 641 640
3 630 640 634
3 636 640 630
3 602 620 598
3 620 634 614
3 598 614 595
3 620 614 598
3 625 630 616
3 630 634 620
3 616 620 602
3 630 620 616
3 581 605 585
3 605 623 609
3 585 609 593
3 605 609 585
3 623 635 624
3 635 641 636
3 624 636 625
3 635 636 624
3 593 610 586
3 610 625 606
3 586 606 582
3 610 606 586
3 623 624 609
3 624 625 610
3 609 610 593
3 624 610 609
3 313 354 315
3 354 400 356
3 315 356 317
3 354 356 315
3 400 444 404
3 444 478 448
3 404 448 408
3 444 448 404
3 317 362 319
3 362 408 364
3 319 364 321
3 362 364 319
3 400 404 356
3 404 408 362
3 356 362 317
3 404 362 356
3 478 514 490
3 514 552 522
3 490 522 495
3 514 522 490
3 552 574 554
3 574 595 576
3 554 576 556
3 574 576 554
3 495 524 492
3 524 556 516
3 492 516 480
3 524 516 492
3 552 554 522
3 554 556 524
3 522 524 495
3 554 524 522
3 321 366 323
3 366 412 368
3 323 368 325
3 366 368 323
3 412 450 406
3 450 480 446
3 406 446 402
3 450 446 406
3 325 358 327
3 358 402 360
3 327 360 329
3 358 360 327
3 412 406 368
3 406 402 358
3 368 358 325
3 406 358 368
3 478 490 448
3 490 495 452
3 448 452 408
3 490 452 448
3 495 492 454
3 492 480 450
3 454 450 412
3 492 450 454
3 408 410 364
3 410 412 366
3 364 366 321
3 410 366 364
3 495 454 452
3 454 412 410
3 452 410 408
3 454 410 452
3 145 166 122
3 166 178 138
3 122 138 101
3 166 138 122
3 178 200 154
3 200 216 174
3 154 174 134
3 200 174 154
3 101 110 78
3 110 134 92
3 78 92 58
3 110 92 78
3 178 154 138
3 154 134 110
3 138 110 101
3 154 110 138
3 216 248 204
3 248 264 224
3 204 224 182
3 248 224 204
3 264 300 256
3 300 313 282
3 256 282 240
3 300 282 256
3 182 212 170
3 212 240 196
3 170 196 162
3 212 196 170
3 264 256 224
3 256 240 212
3 224 212 182
3 256 212 224
3 58 82 50
3 82 106 70
3 50 70 38
3 82 70 50
3 106 130 96
3 130 162 126
3 96 126 86
3 130 126 96
3 38 62 42
3 62 86 66
3 42 66 47
3 62 66 42
3 106 96 70
3 96 86 62
3 70 62 38
3 96 62 70
3 216 204 174
3 204 182 158
3 174 158 134
3 204 158 174
3 182 170 142
3 170 162 130
3 142 130 106
3 170 130 142
3 134 114 92
3 114 106 82
3 92 82 58
3 114 82 92
3 182 142 158
3 142 106 114
3 158 114 134
3 142 114 158
3 312 299 281
3 299 263 255
3 281 255 239
3 299 255 281
3 263 247 223
3 247 215 203
3 223 203 181
3 247 203 223
3 239 211 195
3 211 181 169
3 195 169 161
3 211 169 195
3 263 223 255
3 223 181 211
3 255 211 239
3 223 211 255
3 215 199 173
3 199 177 153
3 173 153 133
3 199 153 173
3 177 165 137
3 165 145 121
3 137 121 99
3 165 121 137
3 133 109 91
3 109 99 77
3 91 77 57
3 109 77 91
3 177 137 153
3 137 99 109
3 153 109 133
3 137 109 153
3 161 129 125
3 129 105 95
3 125 95 85
3 129 95 125
3 105 81 69
3 81 57 49
3 69 49 37
3 81 49 69
3 85 61 65
3 61 37 41
3 65 41 46
3 61 41 65
3 105 69 95
3 69 37 61
3 95 61 85
3 69 61 95
3 215 173 203
3 173 133 157
3 203 157 181
3 173 157 203
3 133 91 113
3 91 57 81
3 113 81 105
3 91 81 113
3 181 141 169
3 141 105 129
3 169 129 161
3 141 129 169
3 133 113 157
3 113 105 141
3 157 141 181
3 113 141 157
3 594 573 575
3 573 551 553
3 575 553 555
3 573 553 575
3 551 513 521
3 513 477 489
3 521 489 494
3 513 489 521
3 555 523 515
3 523 494 491
3 515 491 479
3 523 491 515
3 551 521 553
3 521 494 523
3 553 523 555
3 521 523 553
3 477 443 447
3 443 399 403
3 447 403 407
3 443 403 447
3 399 353 355
3 353 312 314
3 355 314 316
3 353 314 355
3 407 361 363
3 361 316 318
3 363 318 320
3 361 318 363
3 399 355 403
3 355 316 361
3 403 361 407
3 355 361 403
3 479 449 445
3 449 411 405
3 445 405 401
3 449 405 445
3 411 365 367
3 365 320 322
3 367 322 324
3 365 322 367
3 401 357 359
3 357 324 326
3 359 326 328
3 357 326 359
3 411 367 405
3 367 324 357
3 405 357 401
3 367 357 405
3 477 447 489
3 447 407 451
3 489 451 494
3 447 451 489
3 407 363 409
3 363 320 365
3 409 365 411
3 363 365 409
3 494 453 491
3 453 411 449
3 491 449 479
3 453 449 491
3 407 409 451
3 409 411 453
3 451 453 494
3 409 453 451
3 595 614 600
3 614 634 622
3 600 622 604
3 614 622 600
3 634 640 632
3 640 641 638
3 632 638 628
3 640 638 632
3 604 618 592
3 618 628 608
3 592 608 584
3 618 608 592
3 634 632 622
3 632 628 618
3 622 618 604
3 632 618 622
3 641 639 637
3 639 633 631
3 637 631 626
3 639 631 637
3 633 613 621
3 613 594 599
3 621 599 603
3 613 599 621
3 626 617 607
3 617 603 591
3 607 591 583
3 617 591 607
3 633 621 631
3 621 603 617
3 631 617 626
3 621 617 631
3 584 588 564
3 588 596 568
3 564 568 542
3 588 568 564
3 596 587 567
3 587 583 563
3 567 563 540
3 587 563 567
3 542 541 520
3 541 540 519
3 520 519 496
3 541 519 520
3 596 567 568
3 567 540 541
3 568 541 542
3 567 541 568
3 641 637 638
3 637 626 627
3 638 627 628
3 637 627 638
3 626 607 611
3 607 583 587
3 611 587 596
3 607 587 611
3 628 612 608
3 612 596 588
3 608 588 584
3 612 588 608
3 626 611 627
3 611 596 612
3 627 612 628
3 611 612 627
